<?xml version="1.0"?><svg width="1593" height="399" xmlns="http://www.w3.org/2000/svg">
 <title>Alternative London Skyline Larger</title>
 <g>
  <title>Layer 1</title>
  <path fill="#000000" fill-rule="evenodd" id="path4153" d="m348.038422,270.438416l6.064606,16.583099l0,81.702881l-26.486572,0.223358l0,0l0,-82.840424l5.840393,-15.197357l7.420868,-10.550049l7.160645,10.078491l0.000061,0l0,0z"/>
  <path fill="#000000" fill-rule="evenodd" id="path4602" d="m321.698151,368.450775l0.174408,-79.421478l-23.713623,11.200745l0,68.220734l23.539215,0l0,0z"/>
  <g display="inline" id="layer11">
   <g display="inline" id="g3228"/>
   <g id="g3909">
    <path fill="#000000" fill-rule="evenodd" stroke="#000000" stroke-width="0.12958488px" id="path3094" d="m1076.259399,370.302094l-0.05896,-21.32663c0,0 1.624512,-0.243225 2.490845,-1.378143c0,-0.16214 0,-56.502655 0,-56.502655l-17.18811,-0.00119c0,0 0,56.340515 0,56.502655c0.866333,1.134918 2.490845,1.378082 2.490845,1.378082l0,21.03653c2.841064,2.767273 9.421631,2.089844 12.265381,0.29129l0,0l0,0.000092l0,-0.000031z"/>
    <path fill="#000000" fill-rule="evenodd" stroke="#000000" stroke-width="0.12958488px" id="path3096" d="m1066.694824,291.131958l-0.054199,-29.629089l6.84082,0l0.018066,29.622131l-6.804688,0.006958z"/>
    <path fill="#000000" fill-rule="evenodd" stroke="#000000" stroke-width="0.12958488px" id="path3098" d="m1062.224731,286.007996l0,2.092285l15.775024,0l0,-2.120972l-15.775024,0.028656l0,0.000031z"/>
    <path fill="#000000" fill-rule="evenodd" stroke="#000000" stroke-width="0.12958488px" id="path3100" d="m1062.30127,280.046539l0,2.092224l15.775024,0l0,-2.120911l-15.775024,0.028656l0,0l0,0.000031z"/>
    <path fill="#000000" fill-rule="evenodd" stroke="#000000" stroke-width="0.12958488px" id="path3102" d="m1062.199097,274.084991l0,2.092285l15.775024,0l0,-2.120941l-15.775024,0.028656l0,0z"/>
    <path fill="#000000" fill-rule="evenodd" stroke="#000000" stroke-width="0.12958488px" id="path3104" d="m1062.352295,268.094879l0,2.092285l4.45752,0l11.317505,0l0,-2.120941l-15.775024,0.028656z"/>
    <path fill="#000000" fill-rule="evenodd" stroke="#000000" stroke-width="0.12958488px" id="path3106" d="m1062.224731,262.018768l0,2.092255l15.775024,0l0,-2.120972l-15.775024,0.028656l0,0.000061z"/>
    <path fill="#000000" fill-rule="evenodd" stroke="#000000" stroke-width="0.12958488px" id="path3108" d="m1073.609497,261.469116c0,0 4.28833,-0.171936 5.105103,-0.802521c-0.025635,-1.490356 -0.025635,-1.519012 -0.025635,-1.519012c0,0 -0.255005,-0.28656 -1.020874,-0.429901c-0.076538,0.028656 -0.051147,-0.37262 -0.051147,-0.37262l0.714722,0l0.331787,-0.372559l0,-6.076141l0.459473,0c0,0 0.285767,-0.1754 0.385132,-0.469223c0,-0.334412 0,-7.893753 0,-7.893753c0,0 -0.37915,-0.496552 -0.875488,-0.668823c0.0271,-0.030411 0,-5.380676 0,-5.380676c-0.543457,-1.000565 -2.995483,-1.364182 -4.638672,-1.611191l0.009399,-0.415466c0,0 1.425903,-0.111496 1.678711,-0.455994c0.026855,0 0.523193,-0.496506 0.550415,-0.699188c0.018066,-0.040543 0,-3.698624 0,-3.698624c-0.191528,-0.372604 -1.661499,-1.023743 -3.005371,-1.124786l-6.254517,0.005157c-1.343872,0.101044 -2.813843,0.752136 -3.005249,1.124741c0,0 -0.018066,3.658127 0,3.698624c0.0271,0.202682 0.523438,0.699188 0.550537,0.699188c0.252808,0.344543 1.678589,0.456009 1.678589,0.456009l0.009399,0.415451c-1.643188,0.246964 -4.095337,0.610626 -4.638794,1.611191c0,0 -0.0271,5.350327 0,5.380676c-0.496338,0.172333 -0.875366,0.668823 -0.875366,0.668823c0,0 0,7.559387 0,7.893753c0.099121,0.293869 0.385132,0.469223 0.385132,0.469223l0.459351,0l0,6.076157l0.331909,0.37265l0.714722,0c0,0 0.025635,0.401215 -0.051025,0.372559c-0.765869,0.14328 -1.021118,0.429871 -1.021118,0.429871c0,0 0,0.028717 -0.025513,1.519043c0.816772,0.630585 5.105103,0.802521 5.105103,0.802521l7.02002,-0.005096l-0.000732,-0.000061z"/>
    <path fill="#000000" fill-rule="evenodd" stroke="#000000" stroke-width="0.12958488px" id="path3110" d="m1062.712524,285.966064l0,-0.405304l-0.938477,0l-0.162476,0.608002l-1.083008,0.020264l-0.216675,-1.134918l0,-1.175415l0.198608,-0.770172l1.101074,-0.040466l0.270752,0.405273l0,1.722656l1.227295,0.040527l0.018066,0.668793l-0.415161,0.06076l0,0.000061l0,-0.000061z"/>
    <path fill="#000000" fill-rule="evenodd" stroke="#000000" stroke-width="0.12958488px" id="path3112" d="m1062.400513,279.943909l0,-0.405396l-0.938477,0l-0.162354,0.608032l-1.083008,0.020264l-0.216675,-1.134918l0,-1.175415l0.198486,-0.770142l1.101196,-0.040558l0.27063,0.405334l0,1.722595l1.227417,0.040588l0.017944,0.668793l-0.415161,0.060822l0,0z"/>
    <path fill="#000000" fill-rule="evenodd" stroke="#000000" stroke-width="0.12958488px" id="path3114" d="m1062.622314,274.069702l0,-0.405273l-0.938599,0l-0.162476,0.607971l-1.083008,0.020264l-0.216431,-1.134918l0,-1.175476l0.198364,-0.770142l1.101074,-0.040497l0.270874,0.405334l0,1.722656l1.227295,0.040527l0.017944,0.668793l-0.414917,0.06076l-0.000122,0z"/>
    <path fill="#000000" fill-rule="evenodd" stroke="#000000" stroke-width="0.12958488px" id="path3116" d="m1064.212769,268.056732l0,-0.405304l-0.938477,0l-0.162354,0.608002l-1.083008,0.020233l-0.216553,-1.134918l0,-1.175385l0.198486,-0.770142l1.101074,-0.040558l0.27063,0.405273l0,1.722717l1.227417,0.040527l0.018066,0.668793l-0.415039,0.060822l-0.000244,0l0,-0.000061z"/>
    <path fill="#000000" fill-rule="evenodd" stroke="#000000" stroke-width="0.12958488px" id="path3118" d="m1076.935669,276.866516l-1.299683,0c0,0 -1.570313,1.276764 -0.054199,3.039917c0.036133,-0.060822 1.696533,0.081085 1.696533,0.081085c0,0 1.444214,-1.884766 -0.342773,-3.121002l0.000122,-0.000061l0,0.000061z"/>
    <path fill="#000000" fill-rule="evenodd" stroke="#000000" stroke-width="0.12958488px" id="path3120" d="m1077.028076,283.071777l-1.299561,0c0,0 -1.570435,1.276794 -0.054077,3.039978c0.035889,-0.060822 1.696533,0.080994 1.696533,0.080994c0,0 1.44397,-1.884735 -0.343018,-3.120972l0.000122,0z"/>
    <path fill="#000000" fill-rule="evenodd" stroke="#000000" stroke-width="0.11656733px" id="path3122" d="m1077.00769,271.196289l-1.045044,0c0,0 -1.262573,1.284851 -0.043457,3.059113c0.029053,-0.061188 1.364258,0.081543 1.364258,0.081543c0,0 1.161133,-1.896637 -0.275757,-3.140656l0,0z"/>
    <path fill="#000000" fill-rule="evenodd" stroke="#000000" stroke-width="0.11040269px" id="path3124" d="m1075.454102,266.175964l-0.93457,0c0,0 -1.129272,1.288605 -0.039063,3.068176c0.025879,-0.061371 1.220215,0.081787 1.220215,0.081787c0,0 1.038696,-1.902252 -0.246582,-3.149963z"/>
    <path fill="#000000" fill-rule="evenodd" stroke="#000000" stroke-width="0.1218364px" id="path3126" d="m1065.142822,271.6875l-1.144531,0c0,0 -1.383057,1.281616 -0.047729,3.051392c0.031616,-0.061035 1.494141,0.081268 1.494141,0.081268c0,0 1.271606,-1.891815 -0.302002,-3.132721l0.000122,0.000061z"/>
    <path fill="#000000" fill-rule="evenodd" stroke="#000000" stroke-width="0.1339905px" id="path3128" d="m1065.514771,277.45755l-1.296997,0c0,0 -1.567017,1.367828 -0.054199,3.256775c0.036133,-0.065125 1.693237,0.086884 1.693237,0.086884c0,0 1.44104,-2.019226 -0.342163,-3.343658l0.000122,0l0,0z"/>
    <path fill="#000000" fill-rule="evenodd" stroke="#000000" stroke-width="0.1263258px" id="path3130" d="m1065.257446,283.269958l-1.233032,0c0,0 -1.489868,1.278748 -0.051392,3.044708c0.034302,-0.060913 1.609863,0.081238 1.609863,0.081238c0,0 1.370117,-1.887787 -0.325439,-3.125946z"/>
    <path fill="#000000" fill-rule="evenodd" stroke="#000000" stroke-width="0.14293319px" id="path3132" d="m1067.630859,214.415588l4.963989,0.074219l-0.161865,2.053894l-4.838013,0l0.035889,-2.128113l0,0l0,0z"/>
    <path fill="#000000" fill-rule="evenodd" stroke="#000000" stroke-width="0.18691297px" id="path3134" d="m1072.240234,218.684479l-4.128418,0l0.002808,2.061722l4.093018,0l0.032349,-2.061722l0.000244,0z"/>
    <path fill="#000000" fill-rule="evenodd" stroke="#000000" stroke-width="0.20134546px" id="path3136" d="m1068.374146,223.093155l3.477295,0l0,2.262833l-3.467773,0l-0.009521,-2.262833z"/>
    <path fill="#000000" fill-rule="evenodd" stroke="#000000" stroke-width="0.19995555px" id="path3138" d="m1068.878052,227.145401l2.505249,0l0,1.251587l-2.522705,0l0.017212,-1.251587l0.000244,0z"/>
    <path fill="none" stroke="#000000" stroke-width="0.32396" stroke-miterlimit="4" id="path3140" d="m1068.721069,229.588852l-1.187012,-15.075684l5.130615,0.085983l-1.199707,15.004028l-2.743896,-0.014328z"/>
    <path fill="none" stroke="#000000" stroke-width="0.311" stroke-miterlimit="4" id="path3142" d="m1070.227051,214.312561l0,-10.346588"/>
   </g>
  </g>
  <path d="m280.765991,283.812012"/>
  <g display="inline" id="layer12">
   <rect fill="#333333" fill-rule="nonzero" id="rect2693" y="370.28368" x="4.01233" height="20.85891" width="1576.967276"/>
   <rect fill="#000000" fill-rule="nonzero" id="rect3848" y="388.03503" x="4.012705" height="10.96027" width="1576.952256"/>
  </g>
  <g id="svg_1">
   <path id="svg_2" d="m33.217976,366.587006l3.562447,0l-3.279449,-46.072479l2.685944,0c0.939499,0 0.939499,-0.61853 0.939499,-0.61853l0,-3.782684l-1.294853,0l0,0.61438l-3.008091,0l0,-8.265259l1.79789,0l0,-1.706757l-10.326298,-4.574097l-10.365391,4.536194l0,1.706116l1.809471,0l0,8.265198l-3.013855,0l0,-0.613647l-1.288347,0l0,3.782684c0,0 0,0.617859 0.94961,0.617859l2.674393,0l-3.280201,46.077972l12.513596,0.015137l1.640102,0l0,-11.729034l7.282768,0l0.000721,11.746948l0,0l0,0l0.000046,0z"/>
   <g id="svg_3">
    <rect id="svg_4" height="4.633352" width="40.063204" y="366.55464" x="4.288795"/>
    <path id="svg_5" d="m27.280708,368.862701"/>
   </g>
  </g>
  <g display="inline" id="layer13">
   <path fill="#000000" stroke="#000000" stroke-width="0.13656" id="tree03" d="m864.705139,344.860138c0,0 0.756409,-0.099701 0.756409,-0.099701c0,0 2.485474,0.619141 2.485474,0.619141c0.434509,0.218536 0.6604,0.716919 1.08075,0.946899c0,0 0.972595,0.20694 0.972595,0.20694c0.323242,0.149567 1.249207,1.249786 1.490173,1.682953c0.256104,0.460083 0.75769,2.003052 0.819275,2.64325c0.007568,0.626801 -0.23877,1.312988 0,1.801788c0.273376,0.456238 0.699219,0.161041 1.138916,0.584656c0.398804,0.385254 0.530762,1.046509 0.807434,1.631134c0.425781,0.902802 1.165894,1.702118 1.120728,3.070679c-0.058533,1.755768 -1.964844,0.969879 -2.332275,2.693085c-0.315552,1.477875 1.764832,1.25354 1.425354,3.051453c-0.258301,1.368622 -1.402588,1.102203 -1.98407,1.493195c0,0 -1.404785,1.424194 -1.404785,1.424194c-0.33075,0.262604 -0.697083,0.764771 -1.061218,0.381409c-0.642029,-0.678497 -0.493835,-2.100769 -0.624695,-2.712219c-0.118896,-0.555847 -0.40741,-0.956512 -0.691589,-1.242096c-0.212952,-0.212738 -0.499207,-0.438873 -0.742493,-0.253021c-0.421326,0.32016 -0.992371,1.769745 -1.050232,2.58902c0,0 -0.542664,4.910065 -0.542664,4.910065c-0.083252,0.684326 0.067078,1.48877 0.06604,2.236298c0,0.417816 0.022644,0.985687 -0.110107,1.338257c-0.387512,0.201263 -0.600647,0.342834 -1.043091,-0.19989c-0.22467,-0.851074 0.041138,-1.248993 0.106995,-2.216888c0.021667,-1.167419 0.097473,-3.033112 0.069275,-4.288666c0,0 -0.089722,-1.341766 -0.089722,-1.341766c0,0 -0.100647,-0.958344 -0.100647,-0.958344c-0.034363,-0.187805 -0.079773,-0.394867 -0.139282,-0.563568c-0.647217,-1.836273 -1.536682,0.747559 -1.94519,1.134705c-0.202026,0.191711 -0.415894,0.193604 -0.638611,0.163025c-0.325317,-0.046082 -0.804138,-0.18985 -1.08075,-0.492676c-0.283081,-0.308594 -0.560669,-0.929565 -0.86438,-1.044617c-0.486328,-0.185913 -1.885864,1.859406 -2.09552,-0.158905c-0.021606,-0.191925 -0.006531,-0.379791 0,-0.571198c0.037964,-0.9375 0.118896,-1.991547 -0.127502,-2.867523c-0.326233,-1.159607 -0.466919,-0.39679 -1.054871,-2.882813c-0.082031,-0.348877 -0.212646,-0.774414 -0.235413,-1.150055c-0.085449,-1.454834 1.075317,-2.18515 1.287048,-3.084259c0.162048,-0.55011 0.012939,-0.969849 0,-1.516174c-0.052917,-0.573151 0.110229,-1.76712 0.248413,-2.282745c0.1698,-0.638184 0.451904,-0.841522 0.703674,-1.393524c0.246277,-0.538757 0.362976,-1.261261 0.744568,-1.548737c0.335022,-0.25296 0.708801,-0.001404 1.177979,-0.496338c0.487427,-0.515686 0.657959,-1.178894 1.296753,-1.778809c0.802856,-0.331604 1.51947,0.461945 2.161194,0.542419l0,-0.000031l0.000061,0l0,0z"/>
   <path fill="#000000" stroke="#000000" stroke-width="0.15898" id="tree04" d="m1077.770142,337.411774c0.636353,0.113831 0.987671,-0.510956 1.582764,0.374969c0.279297,0.417297 0.700439,1.31427 0.845337,1.912354c0.168457,0.696259 0.198486,1.847748 0.617798,2.28952c0.573364,0.602509 0.862915,-1.381317 1.595093,-0.986328c0.53479,0.29007 0.52356,1.470642 0.514648,2.267212c-0.027832,2.55069 -0.981445,4.594666 -0.858032,6.243744c0.108032,1.454895 1.266968,1.68927 1.206543,3.570435c-0.037842,1.18042 -0.646729,1.251862 -1.341064,2.479218c-0.791504,1.403625 -1.078003,2.693451 -1.503662,4.442902c-0.129272,0.537781 -0.293091,1.765045 -0.485596,2.097656c-0.383667,0.662781 -0.924561,0.002777 -1.414185,0.307983c-0.370972,0.229858 -0.549438,0.809998 -0.896851,1.18042c-0.654175,0.696289 -2.091187,0.914917 -2.482178,2.240417c-0.124878,0.522125 -0.02124,2.791656 0,3.545898c-0.022827,0.580139 0.002319,1.649078 -0.185181,2.131012c-0.082886,0.216431 -0.191284,0.354828 -0.342163,0.354828c-0.56958,0 -0.502075,-1.602173 -0.502075,-2.262665c0,0 0,-3.124115 0,-3.124115c-0.026245,-2.443512 -0.7948,-2.213715 -1.76123,-2.947876c0,0 -1.13208,-1.039825 -1.13208,-1.039825c-0.410278,-0.386108 -0.851929,-1.080139 -1.258545,-1.272034c-0.506958,-0.240967 -1.351196,0.142853 -1.636841,-0.484283c-0.341919,-0.751953 0.147339,-2.729065 -0.091553,-3.851501c-0.198853,-0.939484 -0.744873,-1.53299 -1.019287,-2.454681c-0.148438,-0.497589 -0.499268,-2.56839 -0.500732,-3.124084c0,0 0.117065,-1.785156 0.117065,-1.785156c-0.054077,-0.861359 -0.462891,-1.417053 -0.460205,-2.231506c0.003906,-0.96405 0.505737,-1.278656 0.915771,-2.677826c0.352417,-1.205017 0.65686,-3.010345 1.192749,-3.96994c0.813843,-1.459351 1.538696,-1.365631 2.36377,-1.988159c0.390137,-0.292389 1.064453,-1.397034 2.013062,-2.059692c0.383667,-0.267792 0.846924,-0.263336 1.258057,-0.368195c1.322266,-0.276764 2.958984,1.068878 3.648804,1.189331l0,-0.000031l0,0z"/>
   <path fill="#000000" stroke="#000000" stroke-width="0.10685" id="path6593" d="m1557.817505,346.876434c0,0 0.591919,-0.078033 0.591919,-0.078033c0,0 1.944946,0.484436 1.944946,0.484436c0.339844,0.170959 0.516479,0.560913 0.845703,0.740906c0,0 0.760742,0.161926 0.760742,0.161926c0.253174,0.117065 0.977661,0.977875 1.166138,1.316803c0.200195,0.360046 0.592773,1.567322 0.640991,2.068268c0.005493,0.490479 -0.18689,1.027344 0,1.409821c0.213745,0.356934 0.547119,0.126068 0.891235,0.457428c0.312012,0.301422 0.414917,0.818878 0.631592,1.276306c0.33313,0.706421 0.912354,1.331818 0.876831,2.40271c-0.045654,1.37384 -1.537231,0.758911 -1.824707,2.107208c-0.247192,1.156403 1.380615,0.980865 1.115234,2.387634c-0.202026,1.070953 -1.097412,0.862427 -1.552612,1.168365c0,0 -1.098877,1.11441 -1.098877,1.11441c-0.258911,0.205383 -0.545532,0.598358 -0.830566,0.29837c-0.502441,-0.53067 -0.386353,-1.643768 -0.488525,-2.122192c-0.09314,-0.434723 -0.318726,-0.74823 -0.541382,-0.971649c-0.166504,-0.166534 -0.390503,-0.343445 -0.580688,-0.198029c-0.329956,0.250519 -0.776733,1.384766 -0.821777,2.025818c0,0 -0.424683,3.841919 -0.424683,3.841919c-0.065186,0.535461 0.052246,1.164886 0.051392,1.749786c0,0.326904 0.018188,0.771271 -0.085938,1.047089c-0.303223,0.157501 -0.469849,0.26828 -0.81604,-0.156433c-0.175781,-0.665894 0.032227,-0.977264 0.083618,-1.734619c0.016846,-0.913452 0.075928,-2.373322 0.054565,-3.355713c0,0 -0.070435,-1.049866 -0.070435,-1.049866c0,0 -0.078735,-0.749817 -0.078735,-0.749817c-0.027222,-0.147003 -0.062256,-0.30899 -0.109131,-0.44101c-0.506592,-1.436798 -1.202393,0.58493 -1.522095,0.887878c-0.157959,0.150024 -0.325684,0.151489 -0.499634,0.127594c-0.254517,-0.036102 -0.629028,-0.14856 -0.845825,-0.385529c-0.221313,-0.241394 -0.438477,-0.727386 -0.676147,-0.817352c-0.380615,-0.145477 -1.475586,1.454773 -1.639893,-0.124512c-0.016479,-0.150024 -0.004639,-0.297028 0,-0.44693c0.029785,-0.733429 0.093262,-1.558319 -0.099609,-2.243744c-0.255493,-0.907349 -0.365234,-0.310486 -0.825439,-2.255707c-0.064087,-0.27298 -0.166504,-0.605865 -0.184204,-0.899841c-0.066895,-1.138397 0.841553,-1.709839 1.007324,-2.413177c0.126709,-0.43045 0.01001,-0.758911 0,-1.18634c-0.041748,-0.448486 0.086182,-1.382843 0.194214,-1.786285c0.133057,-0.499207 0.353638,-0.658417 0.550659,-1.090393c0.192871,-0.421417 0.284058,-0.986816 0.582397,-1.211792c0.262329,-0.197937 0.55481,-0.001404 0.921997,-0.388428c0.381226,-0.403503 0.514893,-0.922455 1.014526,-1.391785c0.628418,-0.259521 1.188599,0.36145 1.690918,0.424408l0,0.000092l0,0z"/>
  </g>
  <g display="inline" id="layer10">
   <path fill="#000000" fill-rule="evenodd" stroke="#000000" stroke-width="0.16353" stroke-miterlimit="4" id="path3090" d="m1054.602661,369.053101c-0.170166,0.747742 -1.190674,1.798187 -1.275757,1.861328c-6.803711,5.029999 -24.918579,5.878632 -34.783936,-0.62326c-0.425293,-0.256897 -2.126221,-2.291504 -2.126221,-2.345367c-1.785889,-13.984406 -12.416748,-99.575378 17.179443,-132.70816c-0.170166,-0.196869 3.231689,-0.196869 3.231689,-0.196869c31.297119,29.100098 19.305542,133.848938 17.77478,134.012329l0,0l0,0.000061l0,-0.000061z"/>
  </g>
  <g display="inline" id="layer9">
   <path fill="#000000" fill-rule="evenodd" stroke="#000000" stroke-width="0.01531" stroke-miterlimit="4" id="path3293" d="m327.659912,369.675323l0,-3.651642l0.329956,-0.405792l0,-11.868011c0,0 -0.494934,-0.730316 -0.329956,-0.852051c-0.082489,-0.141968 -0.082489,-0.912903 -0.082489,-0.912903l0.494934,0l0,-11.076782l-0.412445,-0.385437l0,-0.34491l0.412445,0.020233l-0.412445,-0.649139l0,-0.608643l-0.659912,-0.415344l0,-0.538177l0.577423,-0.466583l0,-0.710083l0.412445,-0.324524l0,-2.596771l-0.329956,0l-0.247467,-0.407379l0,-0.38385l0.247467,-0.249451l1.732269,0l0,1.912994l0.412445,0l0,0.324554l0.659882,0l0,-0.324554l1.072357,0l0,0.405762l0.577423,0l0,0.385437l0.412445,0l0,0.243469l0.412445,0.111938l0,-1.430634l0.247467,-0.608643l0.247467,-0.284027l2.392151,0l0,0.324646l2.804626,0l0,-0.426056l2.639648,0l0,0.405731l6.846527,0l0,-0.486877l2.557159,0l0,0.486877l6.929047,0l0,-0.547791l2.557129,0l0,0.547791l6.68158,0l0,-0.527466l2.969604,0l0,0.466644l2.47464,0l0,-0.446381l-0.412445,0l0,-0.791168l-0.247467,0l0,-0.669495l0.742401,0l0,-5.122467l-0.494934,0l0,-1.450531l0.247467,0l0,-10.134155l0,-2.048309l-0.659912,-0.710052l0,-0.618713l0.82489,-0.355133l0,-1.592529l-0.247467,-0.068573l0,-0.408081l0.989868,-0.710083l1.402313,-0.497009l1.484802,0l0,-4.625488l-0.577423,-0.523529l0,-0.860809l0.577423,0l0,-0.279663l0.247467,0l-0.082489,-0.211517l-0.164978,0l-0.247467,-0.274414l0,-0.317505l0.659912,-0.449005l0,-1.019257l0.247437,0c0.494934,-4.7164 2.804626,-13.816284 9.816162,-16.777496l0,-0.646759l0.329956,0l0,-0.401642c0,0 -0.577423,0.067444 -0.577423,-0.371246c0,-0.114746 -0.082489,-0.482422 0.247467,-0.651489l0.247467,-0.018433l0,-1.369354l0.164978,0l0,-0.740479l0.247467,0l0,0.669434l0.412445,0l0,-1.176575l-0.247467,0l0,-0.710114l0.494934,0l0,-5.152924l-0.494934,-0.507172l0,-0.405731l0.494934,0l0,-1.615845l0.577393,0.645508l0,0.789001l0.412445,0l0,-2.926422l-0.577393,0l0,-0.516449l0.329926,0l0,-1.577942c0,0 0.742401,-1.334137 1.154846,-1.334137l0,-0.487732l-0.412445,-0.229553l0,-0.229492l0.412445,0l0,-1.240448l0.329956,0c0,0 -0.247467,-0.218079 -0.247467,-0.426056l0,-0.476715c0,0 0.082489,-0.233307 0.164978,-0.243439c0.164978,-0.011566 0.164978,-0.010132 0.164978,-0.010132l0,-0.264221c-1.154846,-0.717285 -0.247467,-2.085785 0,-1.943787l0.082489,-2.529053l0.164978,-1.369385l0.247467,1.369385l0,2.529053c0.247467,-0.142059 1.237335,1.226501 0,1.943787l0,0.264221c0,0 0,-0.001343 0.164978,0.010132c0.164978,0.010101 0.247467,0.243439 0.247467,0.243439l0,0.476715c0,0.207977 -0.329956,0.426056 -0.329956,0.426056l0.329956,0l0,1.240448l0.412445,0l0,0.229492l-0.329956,0.229553l0,0.487732c0.412445,0 1.072357,1.334137 1.072357,1.334137l0,1.577942l0.329956,0l0,0.516449l-0.577423,0l0,2.926422l0.412445,0l0,-0.789001l0.577423,-0.645508l0,1.615845l0.577423,0l0,0.405731l-0.494934,0.507172l0,5.152924l0.412445,0l0,0.710114l-0.247467,0l0,1.176575l0.494934,0l0,-0.669434l0.164978,0l0,0.740479l0.247467,0l0,1.369354l0.164948,0.018433c0.329956,0.169067 0.329956,0.536743 0.329956,0.651489c-0.082489,0.43869 -0.577393,0.371246 -0.577393,0.371246l0,0.401642l0.247437,0l0,0.646759c7.011536,2.961212 9.321228,12.061096 9.816162,16.777527l0.329956,0l0,1.019257l0.577423,0.449097l0,0.317383l-0.164978,0.274414l-0.247467,0l0,0.211517l0.247467,0l0,0.279724l0.577423,0l0,0.860748l-0.577423,0.52356l0,4.625458l1.484772,0l1.402313,0.497009l0.907379,0.710083l0,0.408081l-0.164978,0.068573l0,1.592529l0.742401,0.355072l0,0.618774l-0.577423,0.710052l0,2.048279l0,10.134155l0.247467,0l0,1.450531l-0.494934,0l0,5.122467l0.742401,0l0,0.669464l-0.329956,0l0,0.791229l-0.329956,0l0,0.317719l3.382019,0l0,-0.589386l2.969604,0l0,0.589874l6.764069,0l0,-0.514191l2.557129,0l0,0.574707l7.011536,0l0,-0.559631l2.639648,0l0,0.529419l6.186646,0l0,-0.506958l3.29953,0l0,0.470581l13.363159,0l0,-2.930481l-0.412445,-0.352905l0,-1.893036l0.412445,-0.213898l0,-0.727264l-0.412445,0l0,-2.438568l1.237335,0l0,-0.962555l0.577423,0.011047l-0.412445,-0.589966l-0.164978,-0.272186l0,-0.605072l0.412445,0.012695l0,-0.770081l0.164978,0l0,-6.54541l-0.329956,-0.222198l-0.494934,-0.279266l0,-0.931763l0.82489,0l0,-1.422455l0.247437,0l0,-0.994659l0.412445,0l0.164978,0l0,-1.2341l-0.247467,0l0,-0.423492l0.247467,0l0,-0.52948l0.412445,0l0,0.514313l0.164978,0l0,0.43866l-0.164978,0l0,0.710876l0.247467,0l0.412445,-0.680634l0,-2.147797l-0.329956,0l0,-0.701813l0.412445,0l0,-0.720001l0.329956,0l0,-0.499084l-0.329956,0l0,-0.544525l0.329956,0l0,-0.514252l0.164978,0l0,-0.194855l0.247467,0l-0.082489,-0.928375l0.412445,-0.609619l0,-1.18634l0.659912,-1.331055l0.164978,0c0,0 0.082489,-0.726044 0.329956,-0.78653c0,-0.030212 0.082489,-0.531219 0.082489,-0.531219c-0.329956,-0.042786 -0.412445,-0.624786 -0.082489,-0.817261c0,0.000824 0,-0.490662 0,-0.492004c-0.412445,-0.162628 -0.412445,-1.020477 0.164978,-1.044373c0.577423,0.025208 0.577423,0.883118 0.164978,1.045715c0,0.001404 0,0.492828 0,0.491913c0.412445,0.192535 0.247467,0.774567 0,0.817322c0,0 0,0.500946 0,0.53125c0.329956,0.060455 0.412445,0.786499 0.412445,0.786499l0.082489,0l0.742401,1.330994l0,1.186401l0.329926,0.609589l0,0.928406l0.247467,0l-0.082489,0.194824l0.247467,0l0,0.514221l0.247467,0l0,0.544464l-0.247467,0l0,0.499207l0.247467,0l0,0.71994l0.412445,0l0,0.701874l-0.247467,0l0,2.147736l0.329956,0.680695l0.329956,0l0,-0.710938l-0.247467,0l0,-0.438599l0.247467,0l0,-0.514252l0.412445,0l0,0.529358l0.164978,0l0,0.423492l-0.164978,0l0,1.234161l0.164978,0l0.412445,0l0,0.994659l0.164978,0l0,1.422424l0.82489,0l0,0.931732l-0.494934,0.279266l-0.329956,0.222168l0,6.545441l0.247467,0l0,0.770081l0.412445,-0.012634l-0.082489,0.604919l-0.164978,0.272339l-0.329956,0.589905l0.577423,-0.011108l0,0.962555l1.154846,0l0,2.438568l-0.412445,0l0,0.727234l0.412445,0.213959l0,1.892975l-0.412445,0.352997l0,2.363098l1.64978,0l0,-0.547119c0,0 -0.329956,-0.302521 -0.247467,-0.529358c0,0.060516 0,-0.930237 0,-0.930237c0,0 0,-0.310059 0.164978,-0.39328c0,-0.022583 0,-2.034363 0,-2.034363l0.164948,-0.211731c0,0 -0.082458,-0.413544 0.247467,-0.429565c0,0 0.329956,-0.012665 0.247467,0.491943c0,-0.007904 0.329956,0.217438 0.329956,0.217438l0,0.544495l-0.164978,0l0,0.234467l0.247467,0l-0.082489,1.86795l-0.164978,0l0,1.716705l0,2.953705l0.412445,0.299438l0,1.593567l-0.247467,0l0,0.930542l-0.164978,0l0,8.77005l0.577423,0l0,1.443848l0.412445,0l0,0.973297l-0.164978,0l0,0.438477l-0.659912,0l0,1.433258l0.247467,0l0,1.026703l-0.247467,0l0,0.898407l-0.164978,0l0,11.230011l0.412445,0l0,0.459808l0.247467,0l0,0.267426l0.164978,0l0,3.818237l-143.61261,0.014191l0,-0.000641l0,0l0,0.000061l0,0.000061l0,0.000092l0,-0.000061l0,0z"/>
  </g>
  <g display="inline" id="layer8">
   <g display="inline" id="g3281">
    <g fill="#1a1a1a" display="inline" id="g3293">
     <path fill="#1a1a1a" fill-rule="nonzero" id="path3295" d="m855.19397,300.30011c0,0.657074 -0.579163,1.189819 -1.293335,1.189819c-0.714355,0 -1.293457,-0.532745 -1.293457,-1.189819c0,-0.657196 0.579102,-1.18988 1.293457,-1.18988c0.714172,0 1.293335,0.532684 1.293335,1.18988z"/>
     <path fill="#1a1a1a" fill-rule="evenodd" stroke="#1a1a1a" stroke-width="2.44234" stroke-miterlimit="4" id="path3297" d="m853.744385,299.423065l0.081909,-3.77478l0.130737,3.768311l-0.212646,0.006531l0,0l0,-0.000061z"/>
     <path fill="#1a1a1a" fill-rule="evenodd" id="path3299" d="m854.33313,301.122986c-0.144836,0.641785 0.239929,4.582001 0.294189,4.597046c4.44519,1.23175 5.042725,5.48642 5.042725,5.48642l1.205688,0.011322l-0.001343,2.401184l-1.266907,0l-0.070251,18.258911l-11.256409,-0.0224l0.022888,-18.101135l-1.209473,0l-0.001282,-2.55542l1.148315,-0.011292c0,0 0.283325,-4.515686 4.726379,-5.328552c0.055298,-0.010071 0.593079,-3.99469 0.448364,-4.636536l0.917053,-0.099609l0.000061,0l0,0l0,0.000061l0,0z"/>
    </g>
    <g display="inline" id="g3301">
     <path fill="#000000" fill-rule="nonzero" stroke="#000000" stroke-width="0.88388" stroke-miterlimit="4" stroke-dashoffset="0" id="path3303" d="m836.790466,293.657776c0,0.657196 -0.579041,1.189819 -1.293335,1.189819c-0.714355,0 -1.293335,-0.532623 -1.293335,-1.189819c0,-0.657135 0.578979,-1.189819 1.293335,-1.189819c0.714294,0 1.293335,0.532684 1.293335,1.189819z"/>
     <path fill="#000000" fill-rule="evenodd" stroke="#000000" stroke-width="2.44234" stroke-miterlimit="4" id="path3305" d="m835.340881,292.780792l0.08197,-3.774841l0.130737,3.768341l-0.212708,0.0065l0,0z"/>
     <path fill="#000000" fill-rule="evenodd" stroke="#000000" stroke-width="0.82763249px" id="path3307" d="m835.929626,294.480652c-0.144714,0.641815 0.23999,4.58197 0.294312,4.597015c4.445068,1.231842 5.042603,5.486481 5.042603,5.486481l1.205688,0.011261l-0.001343,2.401245l-1.266846,0l-0.070129,18.258972l-11.256531,-0.0224l0.022949,-18.101166l-1.209534,0l-0.001282,-2.555359l1.148254,-0.011353c0,0 0.283508,-4.515594 4.726501,-5.328522c0.055298,-0.010071 0.59314,-3.99469 0.448364,-4.636475l0.916992,-0.099701l0,0l0,0z"/>
    </g>
    <path fill="#000000" fill-rule="nonzero" stroke="#000000" stroke-width="0.88388" stroke-miterlimit="4" stroke-dashoffset="0" id="path3310" d="m905.121033,293.572083c0,0.657166 -0.579102,1.189911 -1.293457,1.189911c-0.714111,0 -1.293274,-0.532684 -1.293274,-1.189911c0,-0.657104 0.579163,-1.189789 1.293274,-1.189789c0.714355,0 1.293457,0.532745 1.293457,1.189789z"/>
    <path fill="#000000" fill-rule="evenodd" stroke="#000000" stroke-width="0.20884" stroke-miterlimit="4" id="path3312" d="m903.671387,292.69519l0.081909,-3.774841l0.130798,3.768341l-0.212708,0.0065z"/>
    <g fill="#1a1a1a" display="inline" id="g3314">
     <path fill="#1a1a1a" fill-rule="nonzero" id="path3316" d="m888.958313,299.884674c0,0.603607 -0.557434,1.092926 -1.245239,1.092926c-0.687744,0 -1.245361,-0.489319 -1.245361,-1.092926c0,-0.603607 0.557617,-1.092926 1.245361,-1.092926c0.687805,0 1.245239,0.489288 1.245239,1.092926z"/>
     <path fill="#1a1a1a" fill-rule="evenodd" stroke="#1a1a1a" stroke-width="2.32231" stroke-miterlimit="4" id="path3318" d="m887.562622,299.079132l0.078918,-3.467194l0.125854,3.461273l-0.204773,0.005981l0,-0.000061z"/>
     <path fill="#1a1a1a" fill-rule="evenodd" id="path3321" d="m888.129517,300.640564c-0.139343,0.589508 0.231079,4.208588 0.283325,4.222382c4.279968,1.13147 4.855286,5.039429 4.855286,5.039429l1.160828,0.010376l-0.001282,2.205566l-1.219788,0l-0.067505,16.771088l-10.838257,-0.020569l0.022156,-16.626221l-1.164551,0l-0.001221,-2.347137l1.105591,-0.010376c0,0 0.272888,-4.147675 4.550781,-4.894318c0.053223,-0.009308 0.570984,-3.669189 0.431702,-4.258728l0.882935,-0.091553l0,0l0,0.000061z"/>
    </g>
    <path fill="#000000" fill-rule="evenodd" stroke="#000000" stroke-width="0.07077074px" id="path3323" d="m904.287048,294.592102c-0.144836,0.641876 0.23999,4.582001 0.294312,4.597076c4.445251,1.231812 5.042603,5.48645 5.042603,5.48645l1.205688,0.011261l-0.001282,2.401245l-1.266907,0l-0.070129,18.258972l-11.25647,-0.022491l0.022888,-18.101135l-1.209473,0l-0.001221,-2.555328l1.148315,-0.01123c0,0 0.283386,-4.515686 4.726379,-5.328552c0.055359,-0.010193 0.59314,-3.99469 0.448364,-4.636536l0.917053,-0.09967l-0.000122,0l0,-0.000061z"/>
    <path fill="#000000" fill-rule="evenodd" stroke="#000000" stroke-width="0.06956008px" id="path3325" d="m920.871033,325.933807c0,0 0.005066,-2.641541 0.001648,-2.633453c-0.317383,-0.24115 -2.087769,-0.387878 -2.087769,-0.387878l0,3.283966l-1.867676,-0.259766l-0.025574,-3.100891c-1.142822,-0.196625 -1.631287,-0.260529 -2.706238,-0.301758l0.019165,2.978394l-2.012268,-0.256683l0,-2.797272c-1.48645,-0.048065 -2.556335,-0.061066 -2.556335,-0.061066l0.036377,2.786652l-2.91864,-0.017548l-2.590271,0l0,-2.95932l-4.02655,0l0.036682,2.99353l-2.55365,-0.012543l0,-2.95932l-3.963074,0.013062l-0.008484,2.991577l-2.57135,-0.014526l0,-2.959381l-4.02655,0l0.01709,3.000793l-2.536926,-0.018463l0,-2.95932l-4.02655,0l0.034546,2.989044l-2.555786,-0.004059l0,-2.95932l-4.02655,0l0.036438,2.997528l-2.553894,-0.008423l0,-2.959381l-4.026489,0l0.017334,2.989075l-2.536682,-0.004028l0,-2.95932l-4.026428,0l0.027954,2.995789l-2.544189,-0.010376l0,-2.95929l-4.02655,0l0.035889,2.993561l-2.55426,-0.012543l0,-2.959381l-4.02655,0l0,2.940979l-2.564697,0l0,-2.867188l-15.336731,0l0.124146,48.843903c-0.134155,0.030731 74.53186,-0.257874 74.66687,-0.259949c0,0 15.30542,-0.235107 16.177368,-2.263489c0.05127,-0.885071 0.025574,-42.811951 0.023987,-42.87204l0.001221,0.000122l0,0z"/>
    <path fill="#000000" fill-rule="evenodd" stroke="#000000" stroke-width="0.2399776px" id="path3056" d="m824.988586,380.66452l-0.018066,-5.280243c0,0 -0.953369,-0.175903 -0.899414,-0.567139c0.053955,-0.391083 0.594666,-0.107635 0.755554,-0.586639c0.51593,-1.536621 -0.251892,-2.659668 -1.628296,-2.683685c-1.520508,0.005554 -2.198364,1.157806 -1.682434,2.694427c0.160828,0.479095 0.701599,0.195557 0.755554,0.5867c0.053955,0.391113 -0.899414,0.567078 -0.899414,0.567078l-0.044922,4.996735l0,0.293365l3.661499,-0.020721l-0.000061,0.000122z"/>
   </g>
  </g>
  <g display="inline" id="layer6">
   <path fill="#000000" fill-rule="evenodd" id="path2235" d="m988.19165,367.15921c-3.99408,4.879425 -36.747864,8.392334 -44.652161,0.619781c0.049255,0.028961 -1.551636,-5.319427 -1.551636,-5.319427c0,0 -2.317139,-0.46167 -2.485718,-1.103699c0.00177,0.136414 -0.351807,-3.849976 -0.351807,-3.849976c0,0 -2.944641,-0.212585 -3.310303,-0.69754c-0.010803,0.021637 -0.37561,-6.849976 -0.37561,-6.849976c0,0 -2.067383,-0.114166 -2.364685,-0.638458c-0.024597,0.086914 -0.023743,-4.019653 -0.023743,-4.019653c0.03125,0.02356 -1.6073,0.206757 -2.153442,-0.494995c-0.045288,0.004364 -0.108032,-5.673248 -0.108032,-5.673248c0,0 -1.171631,0.147888 -1.609497,-0.408875c-0.022644,-0.25708 -0.059387,-5.493286 -0.059387,-5.493286c-1.422729,-0.11377 -1.230225,-0.810852 -1.230225,-0.810852l0.149414,-5.025543c-0.450623,-0.08548 -1.080139,-0.705078 -1.009033,-0.975342l0.256531,-5.044495c-0.675903,-0.369843 -0.772522,-1.237732 -0.772522,-1.394226l0.425537,-4.604523c0,0 -0.038025,0.091675 -0.425293,-0.253235c-0.171631,-0.17868 0.324524,-3.793243 0.525879,-3.949768c0.696594,-1.044373 0.03125,0.213287 -0.389709,-1.31485c-0.046387,-0.335144 0.587524,-5.007904 1.363098,-5.450836c0.385681,-0.129761 5.861816,-1.316742 8.83551,-1.398712c-0.087402,0.040985 6.944519,0 6.944519,0c0,0 11.790039,1.536713 16.897827,4.855988c-0.385071,-0.327881 8.431274,5.491058 9.760681,6.597504c-0.034973,-0.041046 10.391113,9.736633 13.557739,17.3284c-0.098999,-0.231842 3.908386,8.519012 4.601257,11.996155c-0.030884,-0.180237 1.294434,4.194672 1.997803,8.164246c0.438843,2.476807 0.605347,3.998657 0.773071,5.512482c0.098755,0.115906 -2.769531,2.05423 -3.104858,1.811005l-0.049316,5.418518l0,0.535187l-0.06189,1.932312l0,0l0,-0.000061z"/>
  </g>
  <g display="inline" id="layer5">
   <g fill="#0d0d0d" display="inline" id="g3843">
    <path fill="#000000" fill-rule="evenodd" id="path3146" d="m116.124695,367.488098c0,0 -25.30442,0.838501 -26.446991,0.128937c-0.134483,0.064484 -2.318741,2.063873 -3.226082,3.837494c0.033638,-0.096649 -1.142563,-0.129059 -1.142563,-0.129059c0,0 0.891479,-2.491608 0.677635,-3.221313c-0.071342,0.091248 -4.324722,-0.84375 -5.584099,-0.98053c0.095032,0.045502 -1.188126,0.182404 -1.663376,3.762451c0.023781,-0.136841 -1.093117,-0.022797 -1.093117,-0.022797c0,0 0,-3.579987 -1.235596,-4.081696c-0.047462,-0.022736 -15.315704,-2.165527 -20.560219,-3.283569c0,0 -3.605934,1.436584 -4.746498,2.804779c-0.570278,-0.228027 -0.570278,-0.228027 -0.570278,-0.228027c0,0 3.017788,-3.192413 2.898983,-4.218567c-0.07135,-0.022766 0.10331,-0.979004 -1.686256,-0.777466c-0.025246,0.016174 -4.309776,2.797516 -4.864204,3.523102l-0.470516,-0.34668c0,0 2.63802,-4.329285 1.59623,-5.328979c-0.033615,-0.032196 -2.488052,-2.953003 -4.008835,-2.702209c0.095032,-0.068512 -6.487041,1.961029 -6.487041,1.961029l-0.04747,-0.376221c0,0 3.029629,-1.744415 2.934597,-1.858429c0,0 -3.245567,0.686279 -3.262333,0.944214c-0.050472,-0.225677 -0.067146,-0.290192 -0.067146,-0.290192l5.326332,-4.337372c0.504139,-0.451477 7.316914,-5.101868 17.2948,-9.547119c0.985672,-0.439148 14.047386,-7.518127 39.317932,-7.611206c-0.142593,0 28.239601,-1.513153 52.63662,17.190582c0,0 1.915588,1.999359 3.494965,3.289276c0.06723,0.193512 -0.23526,0.09671 -0.23526,0.09671c0,0 -4.301407,-2.031616 -5.074234,-0.644928c-0.033615,0 -1.008179,2.192841 -0.100784,3.869751c0.907227,1.676849 2.721954,4.127686 2.721954,4.127686l-0.235168,0.128967c0,0 -3.864594,-4.127747 -5.679321,-3.644012c0.168015,0.064453 -1.949097,0.290192 2.85643,4.837158c0.03363,0 -0.302399,0.290222 -0.302399,0.290222c0,0 -4.335022,-3.321503 -6.015259,-3.095795c-1.411362,0.32251 -15.021408,3.837524 -15.021408,3.837524c0,0 -1.176102,2.483093 -0.470428,4.256714c-0.134293,0.032227 -0.705673,0.225708 -0.705673,0.225708c0,0 -1.781006,-3.611755 -2.386002,-3.611755c-1.310516,0.129089 -5.074249,1.031952 -5.074249,1.031952c0,0 0.638443,2.612061 1.209717,3.289246c-0.806534,0.032257 -0.806534,0.064484 -0.806534,0.064484c0,0 -3.158829,-3.160278 -3.696487,-3.160278l-0.000366,0.000244l0,-0.000031l0,0z"/>
    <path fill="#000000" fill-rule="evenodd" id="path3148" d="m60.139015,342.753998l-5.443962,-19.090698l-0.201637,-3.740753l1.949112,3.611755l5.847237,18.058777l-2.150749,1.160919l0,0z"/>
    <path fill="#000000" fill-rule="evenodd" id="path3150" d="m57.585014,326.501129l-0.403275,-5.095184l1.949104,4.063232l4.43589,16.188385l-1.411453,0.451538l-4.570267,-15.607971l0,0z"/>
    <path fill="#000000" fill-rule="evenodd" id="path3152" d="m66.792801,339.722748l-3.562103,-16.833374l-0.336021,-3.869781l1.478592,3.6763l4.435806,16.510895l-2.016273,0.515991l0,-0.000031z"/>
    <path fill="#000000" fill-rule="evenodd" id="path3154" d="m75.462837,337.820099l-1.680229,-10.738495l0.067146,-4.901672l1.680305,4.708191l1.747391,10.899719l-1.814621,0.032227l0,0.000031l0.000008,-0.000031l0,0.000031z"/>
    <path fill="#000000" fill-rule="evenodd" id="path3156" d="m79.143112,336.841858l-1.520805,-14.000885l0.142593,-3.967651l1.23571,4.423706l1.758408,13.499176l-1.615906,0.045563l0,0.000092l0,0z"/>
    <path fill="#000000" fill-rule="evenodd" id="path3158" d="m94.622185,335.721497l0.156448,-13.382172l0.522812,-3.876465l0.807907,3.739624l0.190063,13.499176l-1.677231,0.019806l0,0.000031z"/>
    <path fill="#000000" fill-rule="evenodd" id="path3160" d="m99.531136,335.200012l0.237625,-7.342438l1.140564,-5.38147l0.9505,5.700714l-0.190063,7.205658l-2.138626,-0.182465l0,0z"/>
    <path fill="#000000" fill-rule="evenodd" id="path3162" d="m110.4618,335.838501l1.473213,-12.906342l1.093117,-4.013275l0.285095,4.60614l-1.425652,12.587097l-1.425774,-0.273621l0,0z"/>
    <path fill="#000000" fill-rule="evenodd" id="path3164" d="m122.010223,338.027588l2.471207,-10.990936l1.900986,-4.970947l-0.475235,5.518219l-2.138641,11.127716l-1.758316,-0.684082l0,0l0,0.000031l0,0z"/>
    <path fill="#000000" fill-rule="evenodd" id="path3166" d="m125.146835,338.894073l3.279175,-15.186584l0.285095,-4.286926l-1.568253,4.46933l-3.421799,14.684906l1.425781,0.319275l0,0z"/>
    <path fill="#000000" fill-rule="evenodd" id="path3168" d="m132.370499,341.35675l5.085175,-16.098694l1.900894,-3.830841l-0.42778,4.742981l-4.514771,16.235474l-2.043518,-1.04892l0,0l0,0z"/>
   </g>
  </g>
  <g display="inline" id="layer7">
   <g id="g12775">
    <path fill="#000000" fill-rule="evenodd" stroke="#000000" stroke-width="1px" id="path2236" d="m594.501038,303.266663l0.697205,0.01651l0.610413,-3.563202l0.282654,-1.289764l-0.399048,-0.030457l-0.03772,-0.272522l0.500671,-0.017914l0.393616,-2.587677l0.184448,-1.420746l0.160095,1.453339l0.413269,2.555695l0.399719,0.015472l0.041748,0.29425l-0.409851,-0.032104l1.145386,7.426514l0.079407,51.473236l0,0l-15.162903,-0.00177l0,-51.475098l1.164795,-7.55542l-0.362,0.035217l0.029419,-0.251953l0.366211,-0.031036l0.362122,-2.020569l0.226746,-1.694672l0.129211,1.706482l0.348633,1.91983l0.364075,0.027222l-0.014771,0.204803l-0.302185,0.03299l0.363403,1.53302l1.122437,3.542175l0.695679,-0.005463l3.182373,-11.92041l3.424683,11.934082l0,-0.000092l0,0.000031l0,0l0.000061,0l0,0z"/>
    <path fill="#000000" fill-rule="evenodd" stroke="#000000" stroke-width="1px" id="path7339" d="m688.292114,303.206238l0.963684,0l0.610413,-3.596191l0.283264,-1.289825l-0.399719,-0.030457l-0.037048,-0.272491l0.500061,-0.017883l0.393677,-2.587738l0.184387,-1.420685l0.160095,1.453339l0.413269,2.555664l0.399719,0.015442l0.041748,0.294281l-0.409851,-0.032104l1.145325,7.426514l0.079407,51.473236l0,0l-15.162231,-0.00174l0,-51.475067l1.164917,-7.555481l-0.362122,0.035278l0.02948,-0.252014l0.36554,-0.031006l0.362549,-2.020569l0.226868,-1.694672l0.12915,1.706512l0.347961,1.91983l0.364014,0.027222l-0.014832,0.204773l-0.302063,0.03302l0.363342,1.53302l0.960388,3.701813l0.894287,0.005463l3.145996,-12.091034l3.158142,11.983612l0,-0.000061l0.000122,0l0,0l0.000061,0l0,0z"/>
    <path fill="#000000" fill-rule="evenodd" stroke="#000000" stroke-width="1px" id="path7342" d="m677.481873,314.234314l-35.966492,0.01123l0,-0.726685c0,0 0.220093,-1.464386 -0.648682,-1.38736c0.031616,-0.010986 -0.784668,-0.13205 -0.711304,1.200165l-1.747009,-0.021973l-0.021545,-1.134094c0,0 1.193176,-1.475433 -0.407776,-2.003906c-0.812927,0.345612 -0.806885,1.161896 -0.335205,1.893555c0.222778,0.346405 0.084839,0.889771 0.084167,1.266418l-1.778564,0.011078c0,0 0.055847,-1.190887 -0.439514,-1.189209c0,0 -1.098206,-0.29248 -0.846497,1.711365l-36.288147,0l0,5.648071l80.881836,0l0,-5.29422l-1.775269,0.015564l0,0l0,0z"/>
    <g display="inline" id="g13443">
     <path fill="none" stroke="#000000" stroke-width="3.3" stroke-miterlimit="4" id="path8345" d="m584.574402,319.894897c-23.131348,24.306213 -34.706055,35.56546 -64.299011,36.533264c0,0 -23.17099,1.39444 -36.16568,-8.995728c0,0.062256 0,0.062256 0,0.062256"/>
     <path fill="none" stroke="#000000" stroke-width="3.3" stroke-miterlimit="4" id="path8336" d="m584.216431,318.626953c0,0 -32.953735,32.210083 -64.037964,35.918854c0,0 -16.171631,1.440857 -36.512207,-9.30545"/>
     <path fill="none" stroke="#000000" stroke-width="1px" id="path11254" d="m575.722473,326.214996l-2.469788,5.461212"/>
     <path fill="none" stroke="#000000" stroke-width="1px" id="path11256" d="m571.99762,328.76944l5.022278,-0.352356"/>
     <path fill="none" stroke="#000000" stroke-width="1px" id="path11258" d="m572.667236,328.945618l-1.841858,4.756561l0,0l0.167542,-0.132111"/>
     <path fill="none" stroke="#000000" stroke-width="1px" id="path11262" d="m563.270874,336.102509l5.189697,-0.396393"/>
     <path fill="none" stroke="#000000" stroke-width="1px" id="path11264" d="m562.203552,336.741089l-4.812988,8.059784"/>
     <path fill="none" stroke="#000000" stroke-width="1px" id="path11266" d="m556.490906,340.682922l7.030945,0.396362"/>
     <path fill="none" stroke="#000000" stroke-width="1px" id="path11268" d="m555.56958,340.947174l-4.687073,8.324005"/>
     <path fill="none" stroke="#000000" stroke-width="1px" id="path11270" d="m550.42218,343.809937l6.1521,2.466339"/>
     <path fill="none" stroke="#000000" stroke-width="1px" id="path11272" d="m549.334045,344.602692l-4.897034,7.619263"/>
     <path fill="none" stroke="#000000" stroke-width="1px" id="path11274" d="m544.1026,347.069031l6.235474,2.906769"/>
     <path fill="none" stroke="#000000" stroke-width="1px" id="path11276" d="m543.516418,347.553528l-5.357422,6.65036"/>
     <path fill="none" stroke="#000000" stroke-width="1px" id="path11278" d="m537.949768,349.931824l5.608398,2.598511"/>
     <path fill="none" stroke="#000000" stroke-width="1px" id="path11280" d="m536.024414,350.812622l-4.143372,4.800629"/>
     <path fill="none" stroke="#000000" stroke-width="1px" id="path11282" d="m531.420776,352.266052l4.812927,2.246124"/>
     <path fill="none" stroke="#000000" stroke-width="1px" id="path11284" d="m529.663025,352.970764c-0.167542,0 -3.850586,3.17099 -3.850586,3.17099"/>
     <path fill="none" stroke="#000000" stroke-width="1px" id="path11286" d="m525.561401,353.719482l4.101624,2.069885"/>
     <path fill="none" stroke="#000000" stroke-width="1px" id="path11288" d="m524.347412,354.291992l-3.013489,2.290222"/>
     <path fill="none" stroke="#000000" stroke-width="2" stroke-miterlimit="4" id="path11290" d="m520.915405,354.732422l4.269165,1.893799"/>
     <path fill="none" stroke="#000000" stroke-width="2" stroke-miterlimit="4" id="path12267" d="m575.324707,329.364044l0,30.917755"/>
     <path fill="none" stroke="#000000" stroke-width="2" stroke-miterlimit="4" id="path12269" d="m569.046753,331.301849l0,29.156067"/>
     <path fill="none" stroke="#000000" stroke-width="2" stroke-miterlimit="4" id="path12271" d="m562.768799,335.441833l0,24.972046"/>
     <path fill="none" stroke="#000000" stroke-width="2" stroke-miterlimit="4" id="path12273" d="m556.323303,340.022278l0,20.259521"/>
     <path fill="none" stroke="#000000" stroke-width="2" stroke-miterlimit="4" id="path12275" d="m549.794373,343.809937l0,16.471863"/>
     <path fill="none" stroke="#000000" stroke-width="2" stroke-miterlimit="4" id="path12277" d="m543.767395,346.628632l0,13.565033l0.16156,-0.098328l0.006042,0.010193"/>
     <path fill="none" stroke="#000000" stroke-width="2" stroke-miterlimit="4" id="path12279" d="m537.406006,349.447327l0,10.834473"/>
     <path fill="none" stroke="#000000" stroke-width="2" stroke-miterlimit="4" id="path12281" d="m531.294922,351.737579l0,8.720337"/>
     <path fill="none" stroke="#000000" stroke-width="2" stroke-miterlimit="4" id="path12283" d="m524.933533,353.58728l0,6.95874"/>
     <path fill="none" stroke="#000000" stroke-width="1px" id="path12376" d="m569.402771,331.456024l4.666199,-0.308319"/>
     <path fill="none" stroke="#000000" stroke-width="1px" id="path12378" d="m567.623413,332.68924l-3.850525,7.355042"/>
     <path fill="none" stroke="#000000" stroke-width="2" stroke-miterlimit="4" id="path7591" d="m512.838013,360.159698l0,-6.033783"/>
     <path fill="none" stroke="#000000" stroke-width="2" stroke-miterlimit="4" id="path7593" d="m506.183167,360.159698l0,-6.914612"/>
     <path fill="none" stroke="#000000" stroke-width="2" stroke-miterlimit="4" id="path7595" d="m499.905212,360.027588l0,-8.323975"/>
     <path fill="none" stroke="#000000" stroke-width="2" stroke-miterlimit="4" id="path7597" d="m493.585541,359.807373l0,-10.085693l0.166901,0"/>
     <path fill="none" stroke="#000000" stroke-width="2" stroke-miterlimit="4" id="path7599" d="m487.474487,359.543121l0,-12.463959"/>
     <path fill="none" stroke="#000000" stroke-width="1px" id="path8572" d="m513.047241,355.931671l4.938049,-1.189178"/>
     <path fill="none" stroke="#000000" stroke-width="1px" id="path8574" d="m513.088989,354.037842l5.273254,2.422302"/>
     <path fill="none" stroke="#000000" stroke-width="1px" id="path8576" d="m506.434143,355.403137l6.864136,-0.968903"/>
     <path fill="none" stroke="#000000" stroke-width="1px" id="path8578" d="m506.518311,353.20105l6.444824,3.347198l0,-0.044037l0,0"/>
     <path fill="none" stroke="#000000" stroke-width="1px" id="path8580" d="m499.988647,354.434235l6.026917,-1.057068"/>
     <path fill="none" stroke="#000000" stroke-width="1px" id="path8582" d="m500.072754,351.791687l5.77533,3.963776"/>
     <path fill="none" stroke="#000000" stroke-width="1px" id="path8584" d="m493.710693,352.892731l6.110352,-1.233185"/>
     <path fill="none" stroke="#000000" stroke-width="1px" id="path8586" d="m493.752441,349.633606l6.026917,4.844635l0,0"/>
     <path fill="none" stroke="#000000" stroke-width="1px" id="path8588" d="m487.558533,350.206146l5.859436,-0.528503"/>
     <path fill="none" stroke="#000000" stroke-width="1px" id="path8590" d="m487.725433,347.035126l5.608368,5.549286"/>
    </g>
    <g display="inline" id="g12056">
     <g display="inline" id="g11860">
      <path fill="none" stroke="#000000" stroke-width="3.3" stroke-miterlimit="4" id="path11862" d="m691.060669,320.039795c23.131287,24.306152 34.706055,35.565399 64.299683,36.533234c0,0 23.170288,1.39447 36.164978,-8.995758"/>
      <path fill="none" stroke="#000000" stroke-width="3.3" stroke-miterlimit="4" id="path11864" d="m691.41864,318.77179c0,0 32.953735,32.210144 64.037903,35.918945c0,0 16.171692,1.440826 36.512268,-9.305481"/>
      <path fill="none" stroke="#000000" stroke-width="1px" id="path11866" d="m699.912659,326.359863l2.469666,5.461273"/>
      <path fill="none" stroke="#000000" stroke-width="1px" id="path11868" d="m703.638062,328.914368l-5.022827,-0.352386"/>
      <path fill="none" stroke="#000000" stroke-width="1px" id="path11870" d="m702.968506,329.090485l1.841248,4.756561l0,0l-0.167603,-0.132111"/>
      <path fill="none" stroke="#000000" stroke-width="1px" id="path11872" d="m712.364197,336.247375l-5.189758,-0.396362"/>
      <path fill="none" stroke="#000000" stroke-width="1px" id="path11874" d="m713.431519,336.885986l4.812988,8.059753"/>
      <path fill="none" stroke="#000000" stroke-width="1px" id="path11876" d="m719.144226,340.827789l-7.030945,0.396393"/>
      <path fill="none" stroke="#000000" stroke-width="1px" id="path11878" d="m720.06543,341.092072l4.687134,8.323975"/>
      <path fill="none" stroke="#000000" stroke-width="1px" id="path11880" d="m725.213501,343.954803l-6.15271,2.4664"/>
      <path fill="none" stroke="#000000" stroke-width="1px" id="path11882" d="m726.301086,344.747559l4.897034,7.619324"/>
      <path fill="none" stroke="#000000" stroke-width="1px" id="path11884" d="m731.533203,347.213959l-6.236206,2.906799"/>
      <path fill="none" stroke="#000000" stroke-width="1px" id="path11886" d="m732.118652,347.698395l5.357361,6.650421"/>
      <path fill="none" stroke="#000000" stroke-width="1px" id="path11888" d="m737.685303,350.076691l-5.608337,2.59848"/>
      <path fill="none" stroke="#000000" stroke-width="1px" id="path11890" d="m739.610657,350.95755l4.143311,4.800629"/>
      <path fill="none" stroke="#000000" stroke-width="1px" id="path11892" d="m744.214233,352.410919l-4.812866,2.246185"/>
      <path fill="none" stroke="#000000" stroke-width="1px" id="path11894" d="m745.972656,353.115631c0.166931,0 3.850037,3.171021 3.850037,3.171021"/>
      <path fill="none" stroke="#000000" stroke-width="1px" id="path11896" d="m750.073669,353.864319l-4.101013,2.069977"/>
      <path fill="none" stroke="#000000" stroke-width="1px" id="path11898" d="m751.287659,354.43689l3.013489,2.290192"/>
      <path fill="none" stroke="#000000" stroke-width="2" stroke-miterlimit="4" id="path11900" d="m754.719727,354.877289l-4.269226,1.893829"/>
      <path fill="none" stroke="#000000" stroke-width="2" stroke-miterlimit="4" id="path11902" d="m700.310364,329.508881l0,30.917816"/>
      <path fill="none" stroke="#000000" stroke-width="2" stroke-miterlimit="4" id="path11904" d="m706.588318,331.446777l0,29.156036"/>
      <path fill="none" stroke="#000000" stroke-width="2" stroke-miterlimit="4" id="path11906" d="m712.866272,335.586731l0,24.972015"/>
      <path fill="none" stroke="#000000" stroke-width="2" stroke-miterlimit="4" id="path11908" d="m719.311768,340.167145l0,20.259552"/>
      <path fill="none" stroke="#000000" stroke-width="2" stroke-miterlimit="4" id="path11910" d="m725.840759,343.954803l0,16.471893"/>
      <path fill="none" stroke="#000000" stroke-width="2" stroke-miterlimit="4" id="path11912" d="m731.867676,346.773499l0,13.565033l-0.161499,-0.098297l-0.005371,0.010223"/>
      <path fill="none" stroke="#000000" stroke-width="2" stroke-miterlimit="4" id="path11914" d="m738.229736,349.592194l0,10.834503"/>
      <path fill="none" stroke="#000000" stroke-width="2" stroke-miterlimit="4" id="path11916" d="m744.340149,351.882416l0,8.720398"/>
      <path fill="none" stroke="#000000" stroke-width="2" stroke-miterlimit="4" id="path11918" d="m750.702209,353.732208l0,6.958679"/>
      <path fill="none" stroke="#000000" stroke-width="1px" id="path11920" d="m706.233032,331.600891l-4.666931,-0.308258"/>
      <path fill="none" stroke="#000000" stroke-width="1px" id="path11922" d="m708.011597,332.834106l3.850586,7.355072"/>
      <path fill="none" stroke="#000000" stroke-width="2" stroke-miterlimit="4" id="path11924" d="m762.797729,360.304565l0,-6.033722"/>
      <path fill="none" stroke="#000000" stroke-width="2" stroke-miterlimit="4" id="path11926" d="m769.451904,360.304565l0,-6.914581"/>
      <path fill="none" stroke="#000000" stroke-width="2" stroke-miterlimit="4" id="path11928" d="m775.729858,360.172424l0,-8.323944"/>
      <path fill="none" stroke="#000000" stroke-width="2" stroke-miterlimit="4" id="path11930" d="m782.050232,359.952271l0,-10.085693l-0.167603,0"/>
      <path fill="none" stroke="#000000" stroke-width="2" stroke-miterlimit="4" id="path11932" d="m788.160583,359.688019l0,-12.46402"/>
      <path fill="none" stroke="#000000" stroke-width="1px" id="path11934" d="m762.58783,356.076538l-4.93811,-1.189178"/>
      <path fill="none" stroke="#000000" stroke-width="1px" id="path11936" d="m762.546143,354.182739l-5.273254,2.422272"/>
      <path fill="none" stroke="#000000" stroke-width="1px" id="path11938" d="m769.200928,355.548035l-6.864136,-0.968964"/>
      <path fill="none" stroke="#000000" stroke-width="1px" id="path11940" d="m769.117432,353.345886l-6.445435,3.347229l0,-0.044067l0,0"/>
      <path fill="none" stroke="#000000" stroke-width="1px" id="path11942" d="m775.646423,354.579071l-6.026917,-1.056976"/>
      <path fill="none" stroke="#000000" stroke-width="1px" id="path11944" d="m775.562988,351.936554l-5.77594,3.963806"/>
      <path fill="none" stroke="#000000" stroke-width="1px" id="path11946" d="m781.924377,353.037567l-6.110352,-1.233154"/>
      <path fill="none" stroke="#000000" stroke-width="1px" id="path11948" d="m781.882629,349.778473l-6.026917,4.844635l0,0"/>
      <path fill="none" stroke="#000000" stroke-width="1px" id="path11950" d="m788.077148,350.351044l-5.860046,-0.528534"/>
      <path fill="none" stroke="#000000" stroke-width="1px" id="path11952" d="m787.909546,347.179962l-5.608398,5.549347"/>
     </g>
     <path fill="none" stroke="#000000" stroke-width="2.13779" stroke-miterlimit="4" id="path11954" d="m800.722534,345.42157l21.134644,13.413177"/>
     <path fill="none" stroke="#000000" stroke-width="2.13779" stroke-miterlimit="4" id="path11956" d="m799.864502,346.169006l20.025635,13.015839"/>
    </g>
    <path fill="#000000" fill-rule="evenodd" stroke="#000000" stroke-width="1px" id="path2241" d="m520.922119,360.864288l-0.014832,-4.204193c0,0 -0.783997,-0.140198 -0.739563,-0.451599c0.044434,-0.311432 0.489258,-0.085724 0.621765,-0.467194c0.424011,-1.223419 -0.207214,-2.117615 -1.339844,-2.136688c-1.250305,0.004303 -1.808167,0.921844 -1.383545,2.145264c0.131958,0.38147 0.576721,0.155731 0.621155,0.467194c0.044434,0.311401 -0.739624,0.451538 -0.739624,0.451538l-0.036987,3.978485l0,0.233582l3.011475,-0.016327l0,0l0,-0.000061l0,0z"/>
    <path fill="#000000" fill-rule="evenodd" stroke="#000000" stroke-width="1px" id="path2249" d="m757.608643,360.846436l-0.014771,-4.204254c0,0 -0.783997,-0.140106 -0.740234,-0.451569c0.044373,-0.311401 0.489258,-0.085663 0.621765,-0.467133c0.424683,-1.22348 -0.207214,-2.117676 -1.339844,-2.13678c-1.250305,0.004303 -1.808228,0.921906 -1.383606,2.145355c0.13269,0.381439 0.577454,0.155701 0.621887,0.467133c0.044373,0.311432 -0.740295,0.451538 -0.740295,0.451538l-0.037048,3.978516l0,0.233551l3.012146,-0.016357l0,0z"/>
    <path fill="#000000" fill-rule="evenodd" stroke="#000000" stroke-width="0.90412" stroke-miterlimit="4" id="path10593" d="m474.135956,360.896759l104.970123,0.015808l0.00061,-0.626465l0,0c-0.009399,0 -93.379242,-0.208038 -104.976807,-0.216064l0.006073,0.826721l0,0z"/>
    <path fill="#000000" fill-rule="evenodd" stroke="#000000" stroke-width="0.90412" stroke-miterlimit="4" id="path2253" d="m474.145355,357.093994l105.151093,0l0,2.100586l-105.151093,0l0,-2.100586l0,0z"/>
    <g display="inline" id="g2268">
     <path fill="#000000" fill-rule="evenodd" stroke="#000000" stroke-width="1px" id="path2264" d="m696.70874,357.225525l187.573975,0l0,2.179993l-187.763733,0l0.189758,-2.179993l0,0z"/>
     <path fill="#000000" fill-rule="evenodd" stroke="#000000" stroke-width="1px" id="path2266" d="m884.006165,360.318237c-0.016846,0 -188.012756,-0.0784 -188.012756,-0.0784l0.015442,0.728485l187.995972,0l0.000671,-0.650085l0.000671,0z"/>
    </g>
    <path fill="#000000" fill-rule="evenodd" stroke="#000000" stroke-width="1px" id="path2276" d="m672.884949,357.120819l24.567383,0l0,14.622009l-24.693237,0l0.125854,-14.622009z"/>
    <path fill="#000000" fill-rule="evenodd" stroke="#000000" stroke-width="1px" id="path2280" d="m578.756714,357.120819l24.568115,0l0,14.622009l-24.693909,0l0.125793,-14.622009z"/>
    <g display="inline" id="g4241">
     <path fill="#000000" fill-rule="evenodd" stroke="#000000" stroke-width="1px" id="path2291" d="m601.19696,358.325928l31.609802,-16.578003l0.938782,1.962067l-31.628662,16.574158l-0.919922,-1.958221z"/>
     <path fill="none" stroke="#000000" stroke-width="3" stroke-miterlimit="4" id="path2296" d="m601.38269,368.259521c0.022888,0.004242 19.210693,-16.712494 31.916687,-23.547241l0.887573,-0.477356"/>
     <path fill="none" stroke="#000000" stroke-width="2.9" stroke-miterlimit="4" id="path3270" d="m604.742737,365.208435l-3.068665,-5.595276l5.761108,2.363159l-1.86676,-4.044098l5.456909,1.367126l-1.826965,-3.895844l5.067261,1.345581l-1.503967,-3.31723l4.769775,0.962067l-1.273132,-2.690155l3.956909,0.570709l-1.135315,-2.049255l3.612427,0.368164l-0.936768,-1.770294l3.136658,0.200226l-0.738892,-1.491425l2.858643,0.102264l-1.055847,-2.160522l0,0"/>
    </g>
    <g display="inline" id="g4247">
     <path fill="#000000" fill-rule="evenodd" stroke="#000000" stroke-width="1px" id="path4249" d="m674.526245,358.021545l-31.609802,-16.578003l-0.939453,1.962097l31.629333,16.574097l0.919922,-1.958191l0,0z"/>
     <path fill="none" stroke="#000000" stroke-width="3" stroke-miterlimit="4" id="path4251" d="m674.339844,367.955139c-0.022888,0.004181 -19.209961,-16.712524 -31.915955,-23.547272l-0.887634,-0.477386"/>
     <path fill="none" stroke="#000000" stroke-width="2.9" stroke-miterlimit="4" id="path4253" d="m670.98053,364.904022l3.067932,-5.595306l-5.760437,2.363159l1.86676,-4.044037l-5.457581,1.367096l1.827026,-3.895782l-5.06665,1.34549l1.504089,-3.31723l-4.769897,0.962036l1.272522,-2.690125l-3.95636,0.570709l1.135193,-2.049225l-3.612976,0.368256l0.937561,-1.770355l-3.136719,0.200226l0.738831,-1.491486l-2.858826,0.102356l1.055969,-2.160583l0,0"/>
    </g>
    <path fill="#000000" fill-rule="evenodd" stroke="#000000" stroke-width="0.20552" stroke-miterlimit="4" id="path12772" d="m479.014832,328.063873c0.115051,-0.053162 0.205902,-0.19455 0.205902,-0.341675l0,0c0,-0.19519 -0.14267,-0.353577 -0.318268,-0.353577c-0.175659,0 -0.317657,0.158386 -0.317657,0.353577c0,0.153107 0.087494,0.2836 0.222748,0.340668l-0.032318,1.980896l-0.532288,0.008209l0,0.380066l0.199219,0c0,0 0.043701,0.577484 -0.06076,1.002045c-1.380737,3.787567 -2.656647,4.248108 -2.656647,4.248108l-1.556519,-0.015778l-0.751007,1.51297l-0.014801,5.189209l-0.80014,0.009155l-0.011414,1.165344l0.826355,0l0,12.153687l-0.917236,2.499725l0.029633,12.498444l0,0l12.611786,-0.000366l-0.029694,-12.662384l-0.946869,-2.499725l0,-11.989716l0.827087,0l-0.011444,-1.165344l-0.80011,-0.009216l-0.015533,-5.189178l-0.662109,-1.447174l-1.372803,-0.050049c0,0 -1.108429,-0.714783 -2.673676,-4.302185c-0.040375,-0.655243 0.004059,-0.950439 -0.002686,-0.956024l0,0l0.197876,0.002747l-0.003387,-0.390503l-0.539734,0l-0.093506,-1.971619l0,-0.000244l0,-0.000092l0,0l0,0z"/>
    <path fill="#000000" fill-rule="evenodd" stroke="#000000" stroke-width="0.20552" stroke-miterlimit="4" id="path12108" d="m796.429871,328.063873c0.11499,-0.053162 0.205872,-0.19455 0.205872,-0.341675l0,0c0,-0.19519 -0.1427,-0.353577 -0.317627,-0.353577c-0.17572,0 -0.318359,0.158386 -0.318359,0.353577c0,0.153107 0.087524,0.2836 0.222778,0.340668l-0.031616,1.980896l-0.53302,0.008209l0,0.380066l0.19928,0c0,0 0.044373,0.577484 -0.060608,1.002045c-1.38092,3.787567 -2.656128,4.248108 -2.656128,4.248108l-1.55658,-0.015778l-0.750916,1.51297l-0.015564,5.189209l-0.80011,0.009155l-0.010742,1.165344l0.826416,0l0,12.153687l-0.917297,2.499725l0.029602,12.498444l0,0l12.611755,-0.000366l-0.029602,-12.662384l-0.946838,-2.499725l0,-11.989716l0.826355,0l-0.010742,-1.165344l-0.80011,-0.009216l-0.015503,-5.189178l-0.66217,-1.447174l-1.373535,-0.050049c0,0 -1.108276,-0.714783 -2.673584,-4.302185c-0.040405,-0.655243 0.0047,-0.950439 -0.003357,-0.956024l0,0l0.198486,0.002747l-0.003357,-0.390503l-0.540405,0l-0.093506,-1.971619l0.000732,-0.000244l0,-0.000092l0,0l0,0z"/>
   </g>
  </g>
  <g display="inline" id="layer4">
   <path fill="#000000" fill-rule="evenodd" stroke="#000000" stroke-width="0.0717786px" id="path2912" d="m988.483032,370.658905l23.77356,0l0,-2.963074l-2.355713,0l0,-2.431274l-2.704346,0l0,-5.546326l-1.649902,-0.82962l0,-8.059692l1.562622,-0.949707l0,-0.949707l-1.701294,-0.911774l0,-0.835785l0.021729,-0.609406c0,0 0.031006,-0.510315 -0.524414,-0.537201c0.031128,-0.026947 0.339355,-0.859619 -0.431885,-1.155029c0.092773,0 -0.52417,-55.792389 -0.52417,-55.792389c0,0 -0.421387,-0.289642 -0.688965,-0.346313c0.133789,-0.05658 0.750488,-4.623108 2.231079,-5.697571c0.001099,-0.096588 -0.00647,-0.195709 -0.00647,-0.195709l-0.294434,-0.018951l0,-0.322937l0.359863,-0.132904l0,-0.265991c0,0 -1.472168,-0.104401 -1.744873,-0.61731c-0.010742,-0.047455 -0.599731,-2.592682 -2.072021,-2.868073c0.070313,-0.006378 -1.035889,-0.00943 -1.156738,-0.007355c-0.12085,0.002228 -1.256104,0.009583 -1.156738,0.011658c-1.210449,0.148773 -2.061035,2.820618 -2.072021,2.868164c-0.272583,0.512817 -1.744873,0.617279 -1.744873,0.617279l0,0.26593l0.360107,0.132965l0,0.322937l-0.294556,0.018951c0,0 -0.008667,0.09906 -0.00647,0.195648c1.480469,1.074463 2.097412,5.641052 2.231079,5.697632c-0.267578,0.05661 -0.688965,0.346313 -0.688965,0.346313c0,0 -0.616821,55.792328 -0.524292,55.792328c-0.771118,0.295471 -0.462646,1.128265 -0.431763,1.15509c-0.555298,0.026886 -0.524292,0.537201 -0.524292,0.537201l0.021484,0.609467l0,0.835785l-1.701172,0.911652l0,0.949768l1.562744,0.949738l0,8.059662l-1.649902,0.82962l0,5.546265l-2.704712,0l0,2.431335l-2.355469,0l0,2.963135l23.773438,0"/>
   <path fill="#000000" fill-rule="evenodd" stroke="#000000" stroke-width="0.0717786px" id="path2914" d="m998.631348,278.984833l-2.153076,-0.016937c0,0 0.620728,-0.72641 0.698242,-1.165649c0.116455,-0.43924 0.79541,-0.523682 0.892456,-0.844666c0,0.101349 0.581909,-3.175964 0.834106,-3.311188c0.252197,-0.135132 -0.232666,-0.185822 -0.232666,-0.185822c0,0 -0.155396,0.354767 -0.407593,0.371674c-0.232788,0.016937 -0.445923,-0.979828 -0.445923,-0.979828l-0.019531,-1.115021l0.174316,-0.101318l0.039063,-0.337921l0.620605,-0.118256c0,0 0.252197,0.033783 0.465576,0.202789c0.019409,0 0.271729,-0.253479 0.504395,-0.202789c0.213379,0.016998 0.077637,-0.675751 0.077637,-0.675751l-0.659546,-0.033722c0,0 0.426758,-1.740082 1.416138,-1.858398c0.019531,0 -0.024292,-0.231201 0.038696,-0.253326c0.179321,-0.063385 0.309082,-0.029144 0.349243,0c0.028931,0.021088 0.038574,0.354767 0.038574,0.354767c0,0 0.387939,0.236511 0.582031,0.472992c-0.019409,-0.101349 0.329712,0.473022 0.329712,0.473022c0,0 0.196289,0.021851 0.213379,0.033783c0.048218,0.03363 -0.002319,0.329895 -0.019409,0.371674c-0.008667,0.023193 -0.484985,0.101349 -0.484985,0.101349l-0.291016,0.135162l-0.135742,0.067566l-0.038696,0.861572l0.465576,0.202728l0.077515,0.135132c0,0 0.425659,-0.03952 0.698242,0c0.05835,0.008514 0.310547,0.371704 0.232788,0.72641c-0.038818,0.354828 0.174561,0.895477 0.174561,0.895477l0.271606,0.540588l0.174683,0.658783l0.407349,0.084473l0.155151,0.253448l-0.019409,0.219635l-0.465454,0.168976l-1.028198,3.817993l-0.310425,-0.101501l1.125732,-3.801025c0,0 -0.252319,0.016968 -0.36853,-0.084442c-0.116455,-0.101379 -0.620728,-1.11499 -0.601563,-1.334595c-0.038574,-0.033844 -0.193848,-0.05069 -0.193848,-0.05069l0,0.456146l0.135986,0.067566l-0.019531,2.145477l-0.291016,1.131836l-0.5625,0.05069c0,0 -0.174438,0.371704 -0.058105,0.473083c0,0.033722 0.795288,0.067505 0.775757,0.793976c-0.155151,-0.033783 -3.161865,0.337891 -3.161865,0.304077l0.000122,0l0,0l-0.000122,0l-0.000122,0l-0.000122,0l-0.000244,0z"/>
  </g>
  <g display="inline" id="layer3">
   <g display="inline" id="g3766">
    <path fill="#000000" fill-rule="nonzero" id="path2836" d="m1499.372314,198.810852c0,2.562943 -2.109253,4.640701 -4.698242,4.640701c-2.588501,0 -4.681641,-2.077759 -4.681641,-4.640701c0,-2.562973 2.09314,-4.640732 4.681641,-4.640732c2.588989,0 4.698242,2.077759 4.698242,4.640732z"/>
    <path fill="#000000" fill-rule="nonzero" id="path2838" d="m1481.379272,202.270645c0,2.563019 -2.109131,4.640717 -4.697876,4.640717c-2.588745,0 -4.681885,-2.077698 -4.681885,-4.640717c0,-2.562958 2.09314,-4.64064 4.681885,-4.64064c2.588745,0 4.697876,2.077682 4.697876,4.64064z"/>
    <path fill="#000000" fill-rule="nonzero" id="path2840" d="m1466.917725,207.842117c0,2.562973 -2.09314,4.640701 -4.681763,4.640701c-2.588623,0 -4.697998,-2.077728 -4.697998,-4.640701c0,-2.562988 2.109375,-4.640686 4.697998,-4.640686c2.588623,0 4.681763,2.077698 4.681763,4.640686z"/>
    <path fill="#000000" fill-rule="nonzero" id="path2842" d="m1453.463379,216.363098c0,2.563019 -2.109375,4.640717 -4.697998,4.640717c-2.588867,0 -4.682129,-2.077698 -4.682129,-4.640717c0,-2.562958 2.093262,-4.64064 4.682129,-4.64064c2.588623,0 4.697998,2.077682 4.697998,4.64064z"/>
    <path fill="#000000" fill-rule="nonzero" id="path2844" d="m1442.421387,226.959763c0,2.562988 -2.09314,4.640762 -4.681885,4.640762c-2.588867,0 -4.697998,-2.077774 -4.697998,-4.640762c0,-2.562897 2.109131,-4.640656 4.697998,-4.640656c2.588745,0 4.681885,2.077759 4.681885,4.640656z"/>
    <path fill="#000000" fill-rule="nonzero" id="path2846" d="m1433.488892,239.522827c0,2.563019 -2.109131,4.640686 -4.69812,4.640686c-2.588623,0 -4.681885,-2.077667 -4.681885,-4.640686c0,-2.562927 2.093262,-4.640656 4.681885,-4.640656c2.588989,0 4.69812,2.077728 4.69812,4.640656z"/>
    <path fill="#000000" fill-rule="nonzero" id="path2848" d="m1426.857422,253.943054c0,2.563019 -2.093384,4.640747 -4.681885,4.640747c-2.588867,0 -4.682007,-2.077728 -4.682007,-4.640747c0,-2.562988 2.09314,-4.640671 4.682007,-4.640671c2.588501,0 4.681885,2.077682 4.681885,4.640671z"/>
    <path fill="#000000" fill-rule="nonzero" id="path2850" d="m1423.341919,269.237244c0,2.562927 -2.109131,4.640656 -4.697998,4.640656c-2.588501,0 -4.681763,-2.077728 -4.681763,-4.640656c0,-2.562988 2.093262,-4.640717 4.681763,-4.640717c2.588867,0 4.697998,2.077728 4.697998,4.640717z"/>
    <path fill="#000000" fill-rule="nonzero" id="path2852" d="m1422.223267,284.749878c0,2.562897 -2.093262,4.640625 -4.682007,4.640625c-2.588623,0 -4.681885,-2.077728 -4.681885,-4.640625c0,-2.562958 2.093262,-4.640717 4.681885,-4.640717c2.588745,0 4.682007,2.077759 4.682007,4.640717z"/>
    <path fill="#000000" fill-rule="nonzero" id="path2854" d="m1424.875977,300.699463c0,2.562988 -2.093262,4.640747 -4.682129,4.640747c-2.588623,0 -4.681763,-2.077759 -4.681763,-4.640747c0,-2.562958 2.09314,-4.640686 4.681763,-4.640686c2.588867,0 4.682129,2.077728 4.682129,4.640686z"/>
    <path fill="#000000" fill-rule="nonzero" id="path2856" d="m1429.957397,315.556702c0,2.562958 -2.109253,4.640656 -4.697754,4.640656c-2.588867,0 -4.682007,-2.077698 -4.682007,-4.640656c0,-2.56308 2.09314,-4.640717 4.682007,-4.640717c2.588501,0 4.697754,2.077637 4.697754,4.640717z"/>
    <path fill="#000000" fill-rule="nonzero" id="path2858" d="m1438.442261,330.195404c0,2.562958 -2.09314,4.640625 -4.681763,4.640625c-2.588745,0 -4.682007,-2.077667 -4.682007,-4.640625c0,-2.563019 2.093262,-4.640717 4.682007,-4.640717c2.588623,0 4.681763,2.077698 4.681763,4.640717z"/>
    <path fill="#000000" fill-rule="nonzero" id="path2860" d="m1451.146118,343.304718c0,2.562866 -2.109253,4.640594 -4.697754,4.640594c-2.589111,0 -4.682251,-2.077728 -4.682251,-4.640594c0,-2.56308 2.09314,-4.640808 4.682251,-4.640808c2.588501,0 4.697754,2.077728 4.697754,4.640808z"/>
    <path fill="#000000" fill-rule="nonzero" id="path2862" d="m1465.367798,353.24588c0,2.562958 -2.09314,4.640656 -4.681763,4.640656c-2.588867,0 -4.682129,-2.077698 -4.682129,-4.640656c0,-2.563019 2.093262,-4.640717 4.682129,-4.640717c2.588623,0 4.681763,2.077698 4.681763,4.640717z"/>
    <path fill="#000000" fill-rule="nonzero" id="path2864" d="m1483.952148,360.346649c0,2.563019 -2.093506,4.640686 -4.682007,4.640686c-2.588745,0 -4.682129,-2.077667 -4.682129,-4.640686c0,-2.562958 2.093384,-4.640625 4.682129,-4.640625c2.588501,0 4.682007,2.077667 4.682007,4.640625z"/>
    <path fill="#000000" fill-rule="nonzero" id="path2866" d="m1505.268555,362.086853c0,2.562958 -2.109253,4.640656 -4.697876,4.640656c-2.588623,0 -4.682007,-2.077698 -4.682007,-4.640656c0,-2.56308 2.093384,-4.640747 4.682007,-4.640747c2.588623,0 4.697876,2.077667 4.697876,4.640747z"/>
    <path fill="#000000" fill-rule="nonzero" id="path2868" d="m1523.788818,361.056824c0,2.562988 -2.093384,4.640656 -4.682129,4.640656c-2.588379,0 -4.681885,-2.077667 -4.681885,-4.640656c0,-2.562958 2.093506,-4.640717 4.681885,-4.640717c2.588745,0 4.682129,2.077759 4.682129,4.640717z"/>
    <path fill="#000000" fill-rule="nonzero" id="path2870" d="m1543.267822,354.666016c0,2.563019 -2.093262,4.640686 -4.682007,4.640686c-2.588623,0 -4.682007,-2.077667 -4.682007,-4.640686c0,-2.562958 2.093384,-4.640717 4.682007,-4.640717c2.588745,0 4.682007,2.077759 4.682007,4.640717z"/>
    <path fill="#000000" fill-rule="nonzero" id="path2872" d="m1559.487061,344.069336c0,2.563049 -2.093628,4.640656 -4.682007,4.640656c-2.588501,0 -4.682129,-2.077606 -4.682129,-4.640656c0,-2.562958 2.093628,-4.640778 4.682129,-4.640778c2.588379,0 4.682007,2.07782 4.682007,4.640778z"/>
    <path fill="#000000" fill-rule="nonzero" id="path2874" d="m1571.63147,331.287781c0,2.562958 -2.109253,4.640747 -4.69812,4.640747c-2.588379,0 -4.682007,-2.077789 -4.682007,-4.640747c0,-2.563049 2.093628,-4.640686 4.682007,-4.640686c2.588867,0 4.69812,2.077637 4.69812,4.640686z"/>
    <path fill="#000000" fill-rule="nonzero" id="path2876" d="m1580.563843,317.195343c0,2.562958 -2.09314,4.640717 -4.681763,4.640717c-2.588867,0 -4.697998,-2.077759 -4.697998,-4.640717c0,-2.562958 2.109131,-4.640717 4.697998,-4.640717c2.588623,0 4.681763,2.077759 4.681763,4.640717z"/>
    <path fill="#000000" fill-rule="nonzero" id="path2878" d="m1586.188599,301.682648c0,2.562988 -2.093384,4.640717 -4.681885,4.640717c-2.588623,0 -4.682007,-2.077728 -4.682007,-4.640717c0,-2.562988 2.093384,-4.640656 4.682007,-4.640656c2.588501,0 4.681885,2.077667 4.681885,4.640656z"/>
    <path fill="#000000" fill-rule="nonzero" id="path2880" d="m1588.953125,286.170013c0,2.562958 -2.093384,4.640717 -4.682007,4.640717c-2.588623,0 -4.69812,-2.077759 -4.69812,-4.640717c0,-2.562927 2.109497,-4.640656 4.69812,-4.640656c2.588623,0 4.682007,2.077759 4.682007,4.640656z"/>
    <path fill="#000000" fill-rule="nonzero" id="path2882" d="m1588.617554,270.111176c0,2.563019 -2.093384,4.640656 -4.682007,4.640656c-2.588623,0 -4.697876,-2.077637 -4.697876,-4.640656c0,-2.562958 2.109253,-4.640686 4.697876,-4.640686c2.588623,0 4.682007,2.077728 4.682007,4.640686z"/>
    <path fill="#000000" fill-rule="nonzero" id="path2884" d="m1584.750366,253.943054c0,2.563019 -2.09314,4.640747 -4.681763,4.640747c-2.588745,0 -4.682007,-2.077728 -4.682007,-4.640747c0,-2.562988 2.093262,-4.640671 4.682007,-4.640671c2.588623,0 4.681763,2.077682 4.681763,4.640671z"/>
    <path fill="#000000" fill-rule="nonzero" id="path2886" d="m1578.58252,240.39679c0,2.562988 -2.109375,4.640686 -4.697998,4.640686c-2.588745,0 -4.682007,-2.077698 -4.682007,-4.640686c0,-2.562958 2.093262,-4.640686 4.682007,-4.640686c2.588623,0 4.697998,2.077728 4.697998,4.640686z"/>
    <path fill="#000000" fill-rule="nonzero" id="path2888" d="m1568.97876,227.069061c0,2.562988 -2.09314,4.640656 -4.682007,4.640656c-2.588501,0 -4.697998,-2.077667 -4.697998,-4.640656c0,-2.562973 2.109497,-4.640747 4.697998,-4.640747c2.588867,0 4.682007,2.077774 4.682007,4.640747z"/>
    <path fill="#000000" fill-rule="nonzero" id="path2890" d="m1558.160645,216.581635c0,2.562927 -2.093384,4.640656 -4.682129,4.640656c-2.588379,0 -4.681763,-2.077728 -4.681763,-4.640656c0,-2.562988 2.093384,-4.640686 4.681763,-4.640686c2.588745,0 4.682129,2.077698 4.682129,4.640686z"/>
    <path fill="#000000" fill-rule="nonzero" id="path2892" d="m1544.705933,207.951355c0,2.563004 -2.093262,4.640717 -4.682007,4.640717c-2.588501,0 -4.697754,-2.077759 -4.697754,-4.640717c0,-2.563004 2.109253,-4.640717 4.697754,-4.640717c2.588745,0 4.682007,2.077713 4.682007,4.640717z"/>
    <path fill="#000000" fill-rule="nonzero" id="path2894" d="m1530.132568,202.052155c0,2.563004 -2.09314,4.640701 -4.682007,4.640701c-2.588623,0 -4.682007,-2.077698 -4.682007,-4.640701c0,-2.562958 2.093384,-4.640732 4.682007,-4.640732c2.588867,0 4.682007,2.077774 4.682007,4.640732z"/>
    <path fill="#000000" fill-rule="nonzero" id="path2896" d="m1515.351685,199.102585c0,2.563019 -2.093384,4.640701 -4.682007,4.640701c-2.588623,0 -4.682007,-2.077682 -4.682007,-4.640701c0,-2.562973 2.093384,-4.640717 4.682007,-4.640717c2.588623,0 4.682007,2.077744 4.682007,4.640717z"/>
    <path fill="none" stroke="#000000" stroke-width="0.9" stroke-miterlimit="4" stroke-dashoffset="0" id="path2898" d="m1567.652344,279.946716c0,37.114624 -30.3927,67.201935 -67.880615,67.201935c-37.487915,0 -67.880859,-30.087311 -67.880859,-67.201935c0,-37.114624 30.392944,-67.201935 67.880859,-67.201935c37.487915,0 67.880615,30.087311 67.880615,67.201935z"/>
    <path fill="none" stroke="#000000" stroke-width="2.82754" stroke-miterlimit="4" stroke-dashoffset="0" id="path2900" d="m1578.678223,280.413574c0,42.566101 -34.867065,77.072784 -77.851807,77.072784c-42.984741,0 -77.852051,-34.506683 -77.852051,-77.072784c0,-42.566086 34.86731,-77.072693 77.852051,-77.072693c42.984741,0 77.851807,34.506653 77.851807,77.072723l0,-0.000031z"/>
    <path fill="none" stroke="#000000" stroke-width="0.30554429px" id="path2902" d="m1475.19519,217.222031l-7.014893,-5.948029l0.543091,9.037949l-6.791138,-5.561813l0.543457,8.651703l-6.31189,-5.252823l1.326294,8.728897l-6.791382,-3.93959l2.269165,7.724686l-8.597046,-2.240112l3.755127,7.029495l-8.037598,-1.622192l4.058716,7.183975l-8.900391,-1.236038l5.305176,6.797775l-8.421387,0l5.465088,4.634842l-8.19751,1.467682l5.624878,4.557556l-8.437256,2.549194l6.168091,4.866577l-7.174927,3.630585l6.631836,3.244415l-8.4375,4.480316l6.567749,1.235931l-6.871338,5.94812l7.638306,0.92688l-6.855225,6.4888l8.421143,0.386261l-7.254395,6.565948l8.421143,-0.154449l-6.631592,6.179749l9.284058,0.154541l-6.1521,6.334229l8.421021,-0.927032l-5.768433,8.342773l9.203979,-2.935425l-5.305054,9.578644l8.884766,-3.862335l-3.275879,11.200867l8.820679,-5.098358l-2.572754,11.278076l9.12439,-5.639008l-1.629761,11.123566l8.021484,-6.334198l-0.687134,11.664246l7.957886,-7.879211l1.469971,11.355377l7.334717,-8.033691l2.109253,11.355347l6.327759,-9.192505l3.195923,10.660187l4.762085,-10.042145l5.145264,10.660095l3.275391,-10.582825l5.225464,9.887573l2.972412,-11.200836l6.69519,9.269714l1.406494,-11.046448l7.654053,8.420105l0.303589,-11.355377l8.117432,7.72464l-0.623169,-12.050507l8.501221,6.797699l-1.789673,-11.046295l7.957764,6.02533l-2.189209,-11.664368l9.204102,4.480347l-3.275757,-11.355286l9.443726,3.707855l-4.985596,-10.196625l9.907349,3.089844l-6.711304,-10.042084l10.370483,0.92688l-7.558228,-7.87915l9.284058,-0.46347l-7.813965,-6.952301l9.843506,-2.549103l-8.820679,-5.948029l9.363892,-2.394714l-8.581055,-4.403076l8.661011,-2.394623l-9.603638,-3.321655l8.500977,-5.252808l-10.450684,-0.84967l7.87793,-5.793579l-8.660889,0l8.501221,-5.870819l-10.91394,0.30899l7.014893,-7.415695l-10.130981,2.47197l6.855225,-7.647491l-9.907471,0.926971l4.522339,-8.883469l-9.364136,3.630661l3.595703,-10.11937l-8.19751,4.866501l2.349121,-10.351074l-8.11792,6.025253l0.543335,-11.278107l-6.903076,6.836411l-1.310303,-11.364792l-8.053589,6.226929l-1.662109,-10.159729l-6.183838,7.756348l-1.326294,-9.504272l-5.736694,8.411835l-2.972168,-9.61348l-3.419434,8.302582l-4.29834,-9.285736l-2.876587,9.285736l-5.736694,-8.193329l-0.766968,8.739471l-7.39856,-7.319321l-0.447388,9.176514l-6.839111,-6.663864l-1.006836,8.990891l0,-0.000031l0,0.000031l0,0z"/>
    <path fill="#000000" fill-rule="nonzero" stroke="#000000" stroke-width="0.9" stroke-miterlimit="4" stroke-dashoffset="0" id="path2904" d="m1505.939819,278.247314c0,2.858307 -2.348999,5.175537 -5.225464,5.175537c-2.892212,0 -5.241089,-2.31723 -5.241089,-5.175537c0,-2.858368 2.348877,-5.175568 5.241089,-5.175568c2.876465,0 5.225464,2.3172 5.225464,5.175568z"/>
    <path fill="#000000" fill-rule="evenodd" stroke="#000000" stroke-width="0.34862983px" id="path2906" d="m1498.413452,282.674072l1.661987,0.020447c0,0 -2.444946,23.198303 -9.715576,89.048645l-8.501221,-0.163239"/>
    <path fill="#000000" fill-rule="evenodd" stroke="#000000" stroke-width="0.35273451px" id="path2908" d="m1501.833008,282.59668l-1.709717,0.020386c0,0 3.515381,27.872681 10.817871,89.349365l7.8302,-0.472107"/>
   </g>
  </g>
  <g id="svg_19">
   <g id="svg_17">
    <rect fill="#000000" stroke-width="null" stroke-dasharray="null" stroke-linejoin="null" stroke-linecap="null" x="155" y="331.385351" width="57.326921" height="33.787818" id="svg_11"/>
    <g id="svg_16">
     <path fill="#000000" fill-rule="evenodd" id="path4146" d="m182.420853,364.362274l0,-63.803589c0,-2.98761 2.953201,-10.185791 6.663925,-10.31076c3.886154,-0.13147 6.92952,7.49823 7.01088,10.31076c0.008194,0.290558 0,63.421143 0,63.421143l-13.674805,0.382477l0,-0.000031z"/>
     <path fill="#000000" fill-rule="evenodd" id="path4155" d="m161.288895,365.908569l0,-75.506409l3.658966,0l0,4.855164l8.656738,0l0,-4.880249l3.420227,0l0,75.503937l-15.73584,0.027496l0,0l0,0l0,0.000061l-0.000092,0l0,0z"/>
     <g id="svg_10">
      <rect fill="#000000" stroke="#000000" stroke-width="5" x="237.226492" y="260.591828" width="10.13355" height="96.702247" id="svg_7"/>
      <rect fill="#000000" stroke="#000000" stroke-width="5" x="233.173075" y="273.581684" width="18.240384" height="85.155711" id="svg_8"/>
     </g>
     <rect fill="#000000" stroke-width="null" stroke-dasharray="null" stroke-linejoin="null" stroke-linecap="null" x="199.298076" y="276.681265" width="26.057692" height="90.100847" id="svg_12"/>
     <path fill="#000000" fill-rule="evenodd" d="m285.715973,267.747437l4.918243,16.115631l0,79.400024l-21.480103,0.217072l0,0l0,-80.505432l4.736481,-14.769012l6.018127,-10.252686l5.807251,9.794403l0,0z" id="svg_13"/>
     <path fill="#000000" stroke-width="null" stroke-dasharray="null" stroke-linejoin="null" stroke-linecap="null" d="m223.613693,276.068237l-11.250961,-18.716919l-12.325851,19.899567l23.576813,-1.182648z" id="svg_14"/>
     <rect fill="#000000" stroke-width="null" stroke-dasharray="null" stroke-linejoin="null" stroke-linecap="null" x="225.355767" y="339.43007" width="63.841344" height="25.743099" id="svg_15"/>
    </g>
   </g>
   <rect fill="#000000" stroke-width="null" stroke-dasharray="null" stroke-linejoin="null" stroke-linecap="null" x="155" y="358.737394" width="270.999992" height="11.262606" id="svg_18"/>
  </g>
  <g id="svg_20">
   <g id="g3172">
    <g id="g3174">
     <path fill="#0f0f0f" fill-rule="evenodd" stroke="#000000" stroke-width="0.12335" stroke-miterlimit="4" id="path3176" d="m1411.699341,371.041321l0,-56.234406l0.949707,0l0,-13.827271l-1.826294,0l0,-2.237244l-0.839844,0l-2.483887,-4.715576l0,-4.30249l-2.682373,-9.734406l-0.017944,-1.806519l0,1.806305l-2.910645,9.734344l0,4.30249l-2.483643,4.715485l-0.840088,0l0,2.237366l-1.826416,0l0,13.827301l0.949829,0l0,56.24295l14.012085,-0.008148l-0.000488,-0.000183l0,0z"/>
     <path fill="#ffffff" fill-rule="nonzero" id="path3178" d="m1408.594604,307.586456c0.001465,2.693024 -1.900146,4.877075 -4.246704,4.877075c-2.346436,0 -4.248169,-2.184052 -4.24646,-4.877075c-0.001709,-2.693054 1.900024,-4.877167 4.24646,-4.877167c2.346558,0 4.248169,2.184113 4.246704,4.877167z"/>
    </g>
    <path fill="#0f0f0f" fill-rule="evenodd" id="path3180" d="m1382.387207,345.659668l22.933594,-0.076385l0,25.461182l-22.981201,0.076294l0.047607,-25.461182l0,0.000092l0,0z"/>
   </g>
   <path fill="#0f0f0f" fill-rule="evenodd" id="path3182" d="m1117.13562,277.504028l-3.250854,5.69635l-0.148193,-18.736969l-2.065674,-3.585449l-2.670654,3.469818l-0.039917,86.813934l26.760986,-11.090546l0,11.122681l0.039795,-86.44165l-2.209106,-4.211853l-2.600952,3.925629l0,18.810425l-3.135376,-5.676117l-2.892822,-0.009399l-0.068115,-5.356445l-2.552124,-4.705963l-2.515747,4.820313l0.005615,5.158783l-2.657104,-0.00351l0.000244,0l0,-0.000031z"/>
   <path fill="#0e0e0e" fill-rule="evenodd" stroke="#000000" stroke-width="0.01812" stroke-miterlimit="4" id="path3184" d="m1243.982422,341.64621l0,-24.733673l-2.661743,-8.55368l0,-6.924408c0,0 -4.491699,-12.604675 -4.669312,-21.36203c-0.075439,-0.318237 -0.095947,-0.328217 -0.165771,-0.011932c-0.17749,8.757355 -4.64978,21.371582 -4.64978,21.371582l0,6.924408l-2.661743,6.760986l0,26.526428"/>
   <path fill="#000000" fill-rule="evenodd" stroke="#000000" stroke-width="0.205844px" id="path3186" d="m1205.395142,370.707397l-15.362427,0l0,-55.979523l1.993408,-5.17746l1.559814,5.146759l0.020386,5.298859l8.408081,0l0,-5.753784l1.655273,-4.672424l1.707031,4.761871l0.018433,56.375763l0,0l0,-0.000061l0,0l0,0z"/>
   <path fill="#000000" fill-rule="evenodd" stroke="#000000" stroke-width="0.205844px" id="path3188" d="m1283.070923,370.736298l-15.362671,0l0,-55.979523l1.993408,-5.17746l1.560181,5.14679l0.020264,5.298859l8.407837,0l0,-5.753784l1.655396,-4.672516l1.707275,4.761871l0.018311,56.375763l0,0z"/>
   <g display="inline" id="g3190">
    <path fill="#000000" fill-rule="evenodd" stroke="#000000" stroke-width="1px" id="path3192" d="m1122.046387,370.702728l-15.362549,0l0,-55.979492l1.993408,-5.17746l1.559814,5.146759l0.020508,5.298828l8.408081,0l0,-5.753784l1.655273,-4.672455l1.707153,4.761871l0.018311,56.375793l0,0l0,-0.000061l0,0z"/>
    <path fill="#000000" fill-rule="evenodd" stroke="#000000" stroke-width="1px" id="path3194" d="m1096.884521,370.707397l-15.362549,0.027252l0,-56.006775l1.99353,-5.17746l1.559937,5.14679l0.020264,5.298859l8.408081,0l0,-5.753815l1.655273,-4.672485l1.707275,4.761932l0.018188,56.375702z"/>
    <path fill="#000000" fill-rule="evenodd" stroke="#000000" stroke-width="0.23449" stroke-miterlimit="4" id="path3196" d="m1099.321411,329.532684l0.046509,0.417633c0.412109,0.293488 0.456543,1.022095 0.447021,1.02655l-0.01416,4.425232l-0.991577,0.007019l-0.013916,-4.432404c-0.009399,-0.004395 0.03479,-0.733063 0.446899,-1.02655l0.028076,-0.417633l0.051147,0.000122l0,0.000031z"/>
    <path fill="#000000" fill-rule="evenodd" stroke="#000000" stroke-width="1.86061418px" id="path3198" d="m1087.401367,335.592773l29.106689,0l-0.668945,34.973907l-28.661865,0.014374l0.224121,-34.988281l0,0z"/>
    <path fill="#000000" fill-rule="evenodd" stroke="#000000" stroke-width="0.23449" stroke-miterlimit="4" id="path3200" d="m1104.653687,329.532684l0.046509,0.417633c0.412109,0.293488 0.456543,1.022095 0.446899,1.02655l-0.013916,4.425232l-0.991577,0.007019l-0.013916,-4.432404c-0.009766,-0.004395 0.034668,-0.733063 0.446899,-1.02655l0.027832,-0.417633l0.05127,0.000122l0,0.000031z"/>
   </g>
   <g display="inline" id="g3202">
    <path fill="#000000" fill-rule="evenodd" stroke="#000000" stroke-width="1px" id="path3204" d="m1391.671997,370.717194l-15.362549,0l0,-55.979523l1.99353,-5.17746l1.559937,5.146759l0.020264,5.29892l8.408081,0l0,-5.753845l1.655273,-4.672485l1.707153,4.761871l0.018311,56.375763l0,0z"/>
    <path fill="#000000" fill-rule="evenodd" stroke="#000000" stroke-width="1px" id="path3206" d="m1366.510376,370.721863l-15.362671,0l0,-55.979523l1.99353,-5.17746l1.559814,5.14682l0.020264,5.298859l8.408081,0l0,-5.753784l1.655273,-4.672516l1.707153,4.761871l0.018311,56.375732l0.000244,0z"/>
    <path fill="#000000" fill-rule="evenodd" stroke="#000000" stroke-width="0.23449" stroke-miterlimit="4" id="path3208" d="m1368.947388,329.54715l0.046143,0.417603c0.412109,0.293488 0.456665,1.022095 0.447021,1.02655l-0.013916,4.425262l-0.991821,0.00705l-0.013672,-4.432434c-0.009766,-0.004425 0.034668,-0.733093 0.446899,-1.02655l0.027954,-0.417664l0.051392,0.000214l0,-0.000031z"/>
    <path fill="#000000" fill-rule="evenodd" stroke="#000000" stroke-width="1.8359226px" id="path3210" d="m1357.411133,335.603149l28.332642,0l-0.651123,34.982086l-27.89978,0.014282l0.218262,-34.996368l0,0z"/>
    <path fill="#000000" fill-rule="evenodd" stroke="#000000" stroke-width="0.23449" stroke-miterlimit="4" id="path3212" d="m1374.279419,329.54715l0.046509,0.417603c0.411987,0.293488 0.456421,1.022095 0.447021,1.02655l-0.013916,4.425262l-0.991699,0.00705l-0.014038,-4.432434c-0.009644,-0.004425 0.03479,-0.733093 0.446899,-1.02655l0.027832,-0.417664l0.051392,0.000214l0,0l0,-0.000031z"/>
   </g>
   <g display="inline" id="g3214">
    <path fill="#000000" fill-rule="evenodd" stroke="#000000" stroke-width="0.23449" stroke-miterlimit="4" id="path3216" d="m1126.513916,334.21701l0.046387,0.417603c0.411987,0.293488 0.456543,1.022125 0.446777,1.026642l-0.013672,4.425201l-0.991943,0.00705l-0.013672,-4.432465c-0.009644,-0.004425 0.03479,-0.733002 0.446777,-1.02652l0.027954,-0.417694l0.051392,0.000183l0,0z"/>
    <path fill="#000000" fill-rule="evenodd" stroke="#000000" stroke-width="0.23449" stroke-miterlimit="4" id="path3218" d="m1132.365845,334.21701l0.046387,0.417603c0.412109,0.293488 0.456421,1.022125 0.447021,1.026642l-0.013916,4.425201l-0.991943,0.00705l-0.013672,-4.432465c-0.009766,-0.004425 0.034668,-0.733002 0.446655,-1.02652l0.028076,-0.417694l0.051392,0.000183l0,0z"/>
    <path fill="#000000" fill-rule="evenodd" stroke="#000000" stroke-width="0.23449" stroke-miterlimit="4" id="path3220" d="m1138.334473,334.21701l0.046387,0.417603c0.411987,0.293488 0.456421,1.022125 0.446777,1.026642l-0.013916,4.425201l-0.991699,0.00705l-0.013916,-4.432465c-0.009521,-0.004425 0.034668,-0.733002 0.447021,-1.02652l0.027954,-0.417694l0.051392,0.000183l0,0z"/>
    <path fill="#000000" fill-rule="evenodd" stroke="#000000" stroke-width="0.23449" stroke-miterlimit="4" id="path3222" d="m1144.186279,334.21701l0.046265,0.417603c0.412231,0.293488 0.456665,1.022125 0.447021,1.026642l-0.013794,4.425201l-0.991821,0.00705l-0.013794,-4.432465c-0.009644,-0.004425 0.034912,-0.733002 0.446777,-1.02652l0.028076,-0.417694l0.05127,0.000183l0,0z"/>
    <path fill="#000000" fill-rule="evenodd" stroke="#000000" stroke-width="0.23449" stroke-miterlimit="4" id="path3224" d="m1150.115234,334.333466l0.046265,0.417664c0.412109,0.293488 0.456665,1.022064 0.447021,1.02655l-0.013916,4.425232l-0.991699,0.00708l-0.013794,-4.432434c-0.009644,-0.004486 0.034546,-0.733154 0.446655,-1.026642l0.028076,-0.417603l0.051392,0.000183l0,-0.000031z"/>
    <path fill="#000000" fill-rule="evenodd" stroke="#000000" stroke-width="0.23449" stroke-miterlimit="4" id="path3226" d="m1155.967163,334.333466l0.046387,0.417664c0.411987,0.293488 0.456543,1.022064 0.446899,1.02655l-0.013794,4.425232l-0.991821,0.00708l-0.013794,-4.432434c-0.009644,-0.004486 0.034546,-0.733154 0.446655,-1.026642l0.028198,-0.417603l0.05127,0.000183l0,-0.000031z"/>
    <path fill="#000000" fill-rule="evenodd" stroke="#000000" stroke-width="0.23449" stroke-miterlimit="4" id="path3228" d="m1161.935669,334.333466l0.046509,0.417664c0.412109,0.293488 0.456299,1.022064 0.446777,1.02655l-0.013794,4.425232l-0.991821,0.00708l-0.013916,-4.432434c-0.009644,-0.004486 0.034912,-0.733154 0.447021,-1.026642l0.027832,-0.417603l0.051392,0.000183l0,-0.000031z"/>
    <path fill="#000000" fill-rule="evenodd" stroke="#000000" stroke-width="0.23449" stroke-miterlimit="4" id="path3230" d="m1167.78772,334.333466l0.046265,0.417664c0.412109,0.293488 0.456543,1.022064 0.446899,1.02655l-0.013916,4.425232l-0.991699,0.00708l-0.013916,-4.432434c-0.009521,-0.004486 0.03479,-0.733154 0.447021,-1.026642l0.027954,-0.417603l0.051392,0.000183l0,-0.000031z"/>
    <path fill="#000000" fill-rule="evenodd" stroke="#000000" stroke-width="0.23449" stroke-miterlimit="4" id="path3232" d="m1174.002808,334.102173l0.046143,0.417603c0.412476,0.293457 0.456665,1.022095 0.447021,1.02655l-0.013916,4.425171l-0.991699,0.007111l-0.013794,-4.432434c-0.009644,-0.004395 0.03479,-0.733093 0.446899,-1.02655l0.027954,-0.417603l0.051392,0.000153l0,0z"/>
    <path fill="#000000" fill-rule="evenodd" stroke="#000000" stroke-width="0.23449" stroke-miterlimit="4" id="path3234" d="m1179.971191,334.102173l0.046387,0.417603c0.412231,0.293457 0.456421,1.022095 0.447021,1.02655l-0.013916,4.425171l-0.991821,0.007111l-0.013916,-4.432434c-0.009644,-0.004395 0.034912,-0.733093 0.447021,-1.02655l0.027832,-0.417603l0.051392,0.000153l0,0z"/>
    <path fill="#000000" fill-rule="evenodd" stroke="#000000" stroke-width="0.23449" stroke-miterlimit="4" id="path3236" d="m1185.82312,334.102173l0.046387,0.417603c0.412109,0.293457 0.456543,1.022095 0.446899,1.02655l-0.013916,4.425171l-0.991699,0.007111l-0.013916,-4.432434c-0.009644,-0.004395 0.03479,-0.733093 0.446899,-1.02655l0.028198,-0.417603l0.051147,0.000153l0,0z"/>
    <path fill="#000000" fill-rule="evenodd" stroke="#000000" stroke-width="1.14979768px" id="path3238" d="m1111.029297,339.936401l90.064697,0l0,30.74646l-90.394897,0.025787l0.3302,-30.772247l0,0z"/>
   </g>
   <g display="inline" id="g3240">
    <path fill="#000000" fill-rule="evenodd" stroke="#000000" stroke-width="0.23595" stroke-miterlimit="4" id="path3242" d="m1287.078125,334.245911l0.046875,0.417664c0.417358,0.293427 0.46228,1.022095 0.452515,1.02655l-0.014038,4.425262l-1.00415,0.007019l-0.014038,-4.432434c-0.009644,-0.004425 0.035156,-0.733063 0.452637,-1.026581l0.028198,-0.417572l0.052002,0.000092l0,0l0,0l0,0z"/>
    <path fill="#000000" fill-rule="evenodd" stroke="#000000" stroke-width="0.23595" stroke-miterlimit="4" id="path3244" d="m1293.003052,334.245911l0.046997,0.417664c0.417114,0.293427 0.462036,1.022095 0.452271,1.02655l-0.013794,4.425262l-1.004272,0.007019l-0.013916,-4.432434c-0.009766,-0.004425 0.035156,-0.733063 0.452393,-1.026581l0.028198,-0.417572l0.052124,0.000092l0,0l0,0l0,0z"/>
    <path fill="#000000" fill-rule="evenodd" stroke="#000000" stroke-width="0.23595" stroke-miterlimit="4" id="path3246" d="m1299.046021,334.245911l0.046997,0.417664c0.417236,0.293427 0.462158,1.022095 0.452515,1.02655l-0.014038,4.425262l-1.004272,0.007019l-0.014038,-4.432434c-0.009766,-0.004425 0.035278,-0.733063 0.452515,-1.026581l0.028442,-0.417572l0.05188,0.000092l0,0l0,0l0,0z"/>
    <path fill="#000000" fill-rule="evenodd" stroke="#000000" stroke-width="0.23595" stroke-miterlimit="4" id="path3248" d="m1304.971069,334.245911l0.046997,0.417664c0.417114,0.293427 0.462036,1.022095 0.452271,1.02655l-0.013916,4.425262l-1.00415,0.007019l-0.014038,-4.432434c-0.009766,-0.004425 0.035156,-0.733063 0.452515,-1.026581l0.028198,-0.417572l0.052124,0.000092l0,0l0,0l0,0z"/>
    <path fill="#000000" fill-rule="evenodd" stroke="#000000" stroke-width="0.23595" stroke-miterlimit="4" id="path3250" d="m1310.973755,334.362335l0.046997,0.417664c0.417358,0.293457 0.462402,1.022095 0.452393,1.02652l-0.013916,4.425293l-1.004272,0.00705l-0.013794,-4.432465c-0.009766,-0.004425 0.035034,-0.733093 0.452271,-1.02652l0.028442,-0.417694l0.052124,0.000153l-0.000244,0z"/>
    <path fill="#000000" fill-rule="evenodd" stroke="#000000" stroke-width="0.23595" stroke-miterlimit="4" id="path3252" d="m1316.898804,334.362335l0.046875,0.417664c0.417358,0.293457 0.46228,1.022095 0.452393,1.02652l-0.014038,4.425293l-1.003906,0.00705l-0.014038,-4.432465c-0.009766,-0.004425 0.035034,-0.733093 0.452515,-1.02652l0.02832,-0.417694l0.05188,0.000153l0,0z"/>
    <path fill="#000000" fill-rule="evenodd" stroke="#000000" stroke-width="0.23595" stroke-miterlimit="4" id="path3254" d="m1322.941772,334.362335l0.047119,0.417664c0.417114,0.293457 0.462036,1.022095 0.452148,1.02652l-0.013672,4.425293l-1.004395,0.00705l-0.013916,-4.432465c-0.009888,-0.004425 0.035034,-0.733093 0.452515,-1.02652l0.028198,-0.417694l0.052002,0.000153l0,0z"/>
    <path fill="#000000" fill-rule="evenodd" stroke="#000000" stroke-width="0.23595" stroke-miterlimit="4" id="path3256" d="m1328.866577,334.362335l0.047119,0.417664c0.417236,0.293457 0.46228,1.022095 0.452515,1.02652l-0.014038,4.425293l-1.004272,0.00705l-0.013916,-4.432465c-0.009888,-0.004425 0.035156,-0.733093 0.452515,-1.02652l0.028442,-0.417694l0.051636,0.000153l0,0z"/>
    <path fill="#000000" fill-rule="evenodd" stroke="#000000" stroke-width="0.23595" stroke-miterlimit="4" id="path3258" d="m1335.159302,334.131042l0.046753,0.417633c0.417603,0.293488 0.46228,1.022125 0.452515,1.02655l-0.013794,4.425201l-1.004272,0.007141l-0.014038,-4.432465c-0.009644,-0.004456 0.0354,-0.733093 0.452515,-1.026581l0.028442,-0.417664l0.05188,0.000183l0,0z"/>
    <path fill="#000000" fill-rule="evenodd" stroke="#000000" stroke-width="0.23595" stroke-miterlimit="4" id="path3260" d="m1341.202271,334.131042l0.046997,0.417633c0.417236,0.293488 0.462036,1.022125 0.452271,1.02655l-0.014038,4.425201l-1.004028,0.007141l-0.014038,-4.432465c-0.009766,-0.004456 0.0354,-0.733093 0.452515,-1.026581l0.028442,-0.417664l0.05188,0.000183l0,0z"/>
    <path fill="#000000" fill-rule="evenodd" stroke="#000000" stroke-width="0.23595" stroke-miterlimit="4" id="path3262" d="m1347.127075,334.131042l0.047119,0.417633c0.417236,0.293488 0.46228,1.022125 0.452393,1.02655l-0.014038,4.425201l-1.00415,0.007141l-0.013794,-4.432465c-0.009766,-0.004456 0.035034,-0.733093 0.452393,-1.026581l0.028198,-0.417664l0.05188,0.000183l0,0z"/>
    <path fill="#000000" fill-rule="evenodd" stroke="#000000" stroke-width="1.13991487px" id="path3264" d="m1272.735596,339.962677l88.507813,0l0,30.75174l-88.832397,0l0.324585,-30.75174z"/>
   </g>
   <g display="inline" id="g3266">
    <path fill="#000000" fill-rule="evenodd" stroke="#000000" stroke-width="0.23449" stroke-miterlimit="4" id="path3268" d="m1209.032593,330.10379l0.046387,0.417725c0.412231,0.293457 0.456787,1.022064 0.446899,1.02655l-0.013916,4.425232l-0.991577,0.007019l-0.013916,-4.432434c-0.009766,-0.004456 0.03479,-0.733063 0.446899,-1.026581l0.027832,-0.417572l0.051392,0.000061l0,0l0,0.000092l0,-0.000092z"/>
    <path fill="#000000" fill-rule="evenodd" stroke="#000000" stroke-width="0.23449" stroke-miterlimit="4" id="path3271" d="m1215.161011,330.084534l0.046509,0.417603c0.412109,0.293488 0.456299,1.022095 0.446655,1.026581l-0.01355,4.425232l-0.992065,0.007019l-0.013672,-4.432434c-0.009766,-0.004456 0.03479,-0.733063 0.446777,-1.02655l0.028076,-0.417603l0.05127,0.000153l0,0z"/>
    <path fill="#000000" fill-rule="evenodd" stroke="#000000" stroke-width="0.23449" stroke-miterlimit="4" id="path3273" d="m1221.146851,330.084534l0.046265,0.417603c0.412354,0.293488 0.456665,1.022095 0.447021,1.026581l-0.013794,4.425232l-0.991821,0.007019l-0.013794,-4.432434c-0.009766,-0.004456 0.034668,-0.733063 0.446777,-1.02655l0.027954,-0.417603l0.051147,0.000153l0.000244,0z"/>
    <path fill="#000000" fill-rule="evenodd" stroke="#000000" stroke-width="0.23449" stroke-miterlimit="4" id="path3275" d="m1227.275024,330.084534l0.046509,0.417603c0.412109,0.293488 0.456543,1.022095 0.447021,1.026581l-0.013916,4.425232l-0.991943,0.007019l-0.013672,-4.432434c-0.009644,-0.004456 0.034668,-0.733063 0.446777,-1.02655l0.027954,-0.417603l0.05127,0.000153l0,0z"/>
    <path fill="#000000" fill-rule="evenodd" stroke="#000000" stroke-width="0.23449" stroke-miterlimit="4" id="path3277" d="m1233.29834,330.084534l0.046143,0.417603c0.412476,0.293488 0.456665,1.022095 0.447021,1.026581l-0.013794,4.425232l-0.991821,0.007019l-0.013794,-4.432434c-0.009644,-0.004456 0.03479,-0.733063 0.446899,-1.02655l0.028076,-0.417603l0.05127,0.000153l0,0z"/>
    <path fill="#000000" fill-rule="evenodd" stroke="#000000" stroke-width="0.23449" stroke-miterlimit="4" id="path3279" d="m1239.319824,330.084534l0.046387,0.417603c0.412231,0.293488 0.456421,1.022095 0.446777,1.026581l-0.013794,4.425232l-0.991943,0.007019l-0.013672,-4.432434c-0.009644,-0.004456 0.034912,-0.733063 0.446899,-1.02655l0.027954,-0.417603l0.051392,0.000153l0,0z"/>
    <path fill="#000000" fill-rule="evenodd" stroke="#000000" stroke-width="0.23449" stroke-miterlimit="4" id="path3281" d="m1245.198608,330.084534l0.046387,0.417603c0.412231,0.293488 0.456665,1.022095 0.447144,1.026581l-0.014038,4.425232l-0.991699,0.007019l-0.013916,-4.432434c-0.009644,-0.004456 0.03479,-0.733063 0.446899,-1.02655l0.027954,-0.417603l0.05127,0.000153l0,0z"/>
    <path fill="#000000" fill-rule="evenodd" stroke="#000000" stroke-width="0.23449" stroke-miterlimit="4" id="path3283" d="m1251.255737,330.084534l0.046387,0.417603c0.412109,0.293488 0.456421,1.022095 0.446777,1.026581l-0.013794,4.425232l-0.991699,0.007019l-0.013794,-4.432434c-0.009644,-0.004456 0.034668,-0.733063 0.446777,-1.02655l0.027954,-0.417603l0.05127,0.000153l0.000122,0z"/>
    <path fill="#000000" fill-rule="evenodd" stroke="#000000" stroke-width="0.23449" stroke-miterlimit="4" id="path3285" d="m1257.34668,330.084534l0.046509,0.417603c0.411987,0.293488 0.456421,1.022095 0.446899,1.026581l-0.013794,4.425232l-0.991943,0.007019l-0.013916,-4.432434c-0.009399,-0.004456 0.03479,-0.733063 0.446899,-1.02655l0.028076,-0.417603l0.05127,0.000153l0,0z"/>
    <path fill="#000000" fill-rule="evenodd" stroke="#000000" stroke-width="0.23449" stroke-miterlimit="4" id="path3287" d="m1263.474976,330.084534l0.046509,0.417603c0.412109,0.293488 0.456665,1.022095 0.446899,1.026581l-0.013794,4.425232l-0.991699,0.007019l-0.013916,-4.432434c-0.009766,-0.004456 0.034668,-0.733063 0.446777,-1.02655l0.028076,-0.417603l0.051147,0.000153l0,0z"/>
    <path fill="#000000" fill-rule="evenodd" stroke="#000000" stroke-width="1.15620375px" id="path3289" d="m1194.801636,336.024872l83.682251,0l0,34.670959l-84.053467,0l0.371216,-34.670959z"/>
   </g>
  </g>
 </g>
</svg>