<?xml version="1.0" encoding="UTF-8" standalone="no"?>
<!-- Created with Inkscape (http://www.inkscape.org/) -->

<svg
   xmlns:dc="http://purl.org/dc/elements/1.1/"
   xmlns:cc="http://creativecommons.org/ns#"
   xmlns:rdf="http://www.w3.org/1999/02/22-rdf-syntax-ns#"
   xmlns:svg="http://www.w3.org/2000/svg"
   xmlns="http://www.w3.org/2000/svg"
   xmlns:sodipodi="http://sodipodi.sourceforge.net/DTD/sodipodi-0.dtd"
   xmlns:inkscape="http://www.inkscape.org/namespaces/inkscape"
   id="svg2"
   version="1.1"
   inkscape:version="0.48.4 r9939"
   width="507"
   height="338"
   sodipodi:docname="200517684-002.jpg.svg">
  <metadata
     id="metadata8">
    <rdf:RDF>
      <cc:Work
         rdf:about="">
        <dc:format>image/svg+xml</dc:format>
        <dc:type
           rdf:resource="http://purl.org/dc/dcmitype/StillImage" />
        <dc:title></dc:title>
      </cc:Work>
    </rdf:RDF>
  </metadata>
  <defs
     id="defs6" />
  <sodipodi:namedview
     pagecolor="#ffffff"
     bordercolor="#666666"
     borderopacity="1"
     objecttolerance="10"
     gridtolerance="10"
     guidetolerance="10"
     inkscape:pageopacity="0"
     inkscape:pageshadow="2"
     inkscape:window-width="1301"
     inkscape:window-height="744"
     id="namedview4"
     showgrid="false"
     inkscape:zoom="0.81449775"
     inkscape:cx="451.68707"
     inkscape:cy="199.50536"
     inkscape:window-x="65"
     inkscape:window-y="24"
     inkscape:window-maximized="1"
     inkscape:current-layer="svg2" />
  <path
     style="fill:#711113;stroke:#000000;stroke-width:1px;stroke-linecap:butt;stroke-linejoin:miter;stroke-opacity:1;fill-opacity:1"
     d="m 155.39897,338.86815 -16.49486,-27.78082 12.15411,-19.96747 43.40753,-63.375 18.23117,-24.30822 24.30822,-25.17637 13.02226,-6.9452 25.17637,-1.7363 26.91267,8.6815 25.17637,8.68151 12.15411,8.68151 23.44007,73.79281 18.23116,63.375 4.34075,-2.60446 -3.4726,-21.70376 -0.86815,-11.28596 -22.57192,-67.71576 -8.6815,-39.93493 1.7363,-22.57192 15.62671,-4.34075 11.28596,-6.9452 14.75856,1.7363 22.57192,18.23116 27.78082,37.33048 14.75856,26.04452 6.07706,28.64897 -1.7363,39.06679 -11.28596,29.51712 -29.51713,-1.7363 6.94521,-40.80308 0.86815,-25.17637 -21.70377,-25.17637 0,53.82534 10.41781,42.53938 -151.05822,-2.60445 -24.30822,-51.22089 -6.07705,-10.41781 -33.85788,37.33048 19.09932,26.04452 z"
     id="path2994"
     inkscape:connector-curvature="0" />
  <path
     style="fill:#000f3b;fill-opacity:1;stroke:#000000;stroke-width:1px;stroke-linecap:butt;stroke-linejoin:miter;stroke-opacity:1"
     d="M 177.10274,252.05308 142.37671,236.42637 111.99144,222.53596 99.837329,205.17295 81.606164,182.60103 70.320206,155.68836 52.089041,147.875 l -7.813356,-7.81336 8.681507,-12.15411 1.736301,-23.44006 22.571918,27.78082 32.989729,13.02226 23.44007,4.34075 7.81335,13.89041 13.89041,-10.41781 26.91267,0.86815 41.67124,-20.83561 17.36301,3.4726 11.28596,0.86815 30.92997,6.52391 -3.14915,11.70726 38.19863,9.54965 19.96747,0.86815 11.28596,-10.4178 -2.60446,-7.81336 34.72603,6.94521 -23.44007,9.54965 -6.07705,3.47261 0.92984,22.06336 30.32358,122.04965 0,18.23116 -7.81335,-2.60445 -40.80309,-134.56335 -43.40753,-16.49487 -32.12158,-6.07705 -17.36301,7.81335 -19.96746,18.23117 z"
     id="path2996"
     inkscape:connector-curvature="0"
     sodipodi:nodetypes="cccccccccccccccccccccccccccccccccccccc" />
  <path
     style="fill:#000f3b;fill-opacity:1;stroke:#000000;stroke-width:1px;stroke-linecap:butt;stroke-linejoin:miter;stroke-opacity:1"
     d="m 225.86813,285.82229 23.29112,17.45169 -13.58649,-31.82368 z"
     id="path2998"
     inkscape:connector-curvature="0" />
  <path
     style="fill:none;stroke:#000000;stroke-width:1px;stroke-linecap:butt;stroke-linejoin:miter;stroke-opacity:1"
     d="m 409.76712,310.21918 1.7363,-23.44007"
     id="path3000"
     inkscape:connector-curvature="0" />
  <path
     style="fill:none;stroke:#000000;stroke-width:1px;stroke-linecap:butt;stroke-linejoin:miter;stroke-opacity:1"
     d="m 408.03082,260.73459 15.62671,0"
     id="path3002"
     inkscape:connector-curvature="0" />
  <path
     style="fill:none;stroke:#000000;stroke-width:1px;stroke-linecap:butt;stroke-linejoin:miter;stroke-opacity:1"
     d="m 410.63527,257.26199 10.41781,0.86815"
     id="path3006"
     inkscape:connector-curvature="0" />
  <path
     style="fill:none;stroke:#000000;stroke-width:1px;stroke-linecap:butt;stroke-linejoin:miter;stroke-opacity:1"
     d="m 428.86644,270.28425 -15.62671,42.53938"
     id="path3008"
     inkscape:connector-curvature="0" />
  <path
     style="fill:#000f3b;fill-opacity:1;stroke:#000000;stroke-width:0.99999994px;stroke-linecap:butt;stroke-linejoin:miter;stroke-opacity:1"
     d="m 413.23973,312.82362 -4.34076,-26.61876 0,-45.35049 7.81336,2.95764 12.15411,23.66113 z"
     id="path3012"
     inkscape:connector-curvature="0" />
  <path
     style="fill:none;stroke:#000000;stroke-width:1px;stroke-linecap:butt;stroke-linejoin:miter;stroke-opacity:1"
     d="M 346.22563,105.95516 z"
     id="path3062"
     inkscape:connector-curvature="0" />
  <path
     style="fill:none;stroke:#000000;stroke-width:1px;stroke-linecap:butt;stroke-linejoin:miter;stroke-opacity:1"
     d="M 346.83951,101.65803 z"
     id="path3064"
     inkscape:connector-curvature="0" />
  <g
     id="g4001"
     transform="matrix(1,0,0,1.0684213,-305.70986,-59.209325)">
    <path
       inkscape:connector-curvature="0"
       id="path3014"
       d="m 583.84411,208.30713 4.34076,-10.41781 -14.75857,-6.07706 -6.9452,-12.15411 -13.02226,-16.49486 -6.07706,-19.96747 8.68151,-4.34076 -10.41781,-3.4726 5.20891,-22.57192 4.34075,-13.022257 17.36301,-5.208904 6.07706,-3.472602 9.54966,-19.967466 13.02226,3.472603 19.96746,10.417808 3.4726,11.285959 18.23117,11.285959 4.34075,16.49486 3.47261,18.23117 6.9452,14.75857 2.60445,18.23116 -8.6815,10.41781 -1.73631,17.36301 0,6.07706 -12.1541,6.9452 -26.91268,-2.60445 z"
       style="fill:#ba806b;fill-opacity:1;stroke:#000000;stroke-width:0.96745044px;stroke-linecap:butt;stroke-linejoin:miter;stroke-opacity:1" />
    <path
       inkscape:connector-curvature="0"
       id="path3016"
       d="m 580.02093,194.92526 4.82223,-2.51489 -0.96444,-13.41272 -5.78668,-7.54466 -18.32445,-13.41274 5.78667,-9.22125 14.46667,10.89785 0.96446,-29.34035 3.85777,-11.73615 -17.36,-5.02977 -0.96445,-8.38296 19.2889,-14.251028 L 596.4165,89.3 l 27.9689,3.353183 5.78667,8.382957 -7.71557,-18.442506 -8.67999,3.353184 -8.68001,-3.353184 -5.78667,-5.029774 -2.89333,4.191478 -8.68001,-9.221253 -9.64445,2.514888 -4.82222,10.059548 -10.60889,5.868071 -10.6089,4.19148 -5.78666,6.706368 2.89333,8.38295 -6.75111,19.28081 -10.6089,3.35319 14.46668,13.41272 0.96444,15.08933 1.92889,6.70636 10.60889,5.02977 3.85778,12.57444 12.53778,5.02978 z"
       style="fill:#291715;fill-opacity:1;stroke:#000000;stroke-width:0.96745038px;stroke-linecap:butt;stroke-linejoin:miter;stroke-opacity:1" />
    <path
       inkscape:connector-curvature="0"
       id="path3032"
       d="m 572.7456,179.92069 -9.35322,0.13763 -15.84375,-5.91926 -9.33262,-20.16931 0,-17.31929 14.32448,-28.71935 24.7423,-33.761666 10.63484,-4.1654 16.06079,-9.207728 21.48673,-2.411548 5.2089,2.411548 0.43408,16.442372 -4.34075,20.169309 -8.89855,-14.907751 -7.81335,-5.261558 -27.78083,8.550033 -12.37114,13.373128 -17.14598,20.388541 -8.46447,15.78468 -0.43407,13.15389 4.99186,13.59236 9.33262,9.20773 10.20077,4.38463 7.16225,-0.21923 z"
       style="fill:#c67400;fill-opacity:1;stroke:#000000;stroke-width:0.96745044px;stroke-linecap:butt;stroke-linejoin:miter;stroke-opacity:1" />
    <path
       inkscape:connector-curvature="0"
       id="path3034"
       d="m 549.06789,153.31206 6.94521,-27.18472 13.45633,-18.19623 17.14598,-16.223136 8.46447,-5.480791 6.29409,-2.630779 9.54966,0.219232 12.15411,9.646191 -8.0304,-12.057738 -8.46447,-3.069244 -13.02226,3.946169 -14.75856,8.11157 -25.39341,27.184716 -2.82149,5.91926 -5.64298,12.05774 0,7.45387 -0.21703,6.35772 z"
       style="fill:#e0b492;fill-opacity:1;stroke:#000000;stroke-width:0.96745044px;stroke-linecap:butt;stroke-linejoin:miter;stroke-opacity:1" />
    <path
       inkscape:connector-curvature="0"
       id="path3036"
       d="m 538.21601,153.09283 -11.06892,-19.29239 -2.38742,-9.42695 1.30223,-16.22314 6.51113,-16.223145 10.41781,-15.784676 9.33262,-6.138486 6.51113,-4.384632 7.81335,-4.603863 9.7667,-0.438464 10.63484,0.438464 9.54966,3.507705 -19.53339,9.426959 -20.40154,28.500108 -12.58818,22.1424 -5.86002,12.05774 z"
       style="fill:#aa7600;fill-opacity:1;stroke:#000000;stroke-width:0.96745044px;stroke-linecap:butt;stroke-linejoin:miter;stroke-opacity:1" />
    <path
       inkscape:connector-curvature="0"
       id="path3038"
       d="m 575.54649,74.169444 -5.64298,-8.330801 c 0,0 -13.2393,2.63078 -13.2393,1.534622 0,-1.096159 10.85188,-6.79618 10.85188,-6.79618 l 15.40968,0.657695 10.4178,1.315389 0.43408,2.411548 z"
       style="fill:#ffe766;fill-opacity:1;stroke:#000000;stroke-width:0.96745044px;stroke-linecap:butt;stroke-linejoin:miter;stroke-opacity:1" />
    <path
       inkscape:connector-curvature="0"
       id="path3120"
       d="m 613.12509,141.89015 14.73184,3.22652 14.73075,-12.29288 2.26643,0.4964 -2.26752,-16.01581 -21.42656,17.88056 z"
       style="fill:#73403c;fill-opacity:1;stroke:#000000;stroke-width:0.96745044px;stroke-linecap:butt;stroke-linejoin:miter;stroke-opacity:1" />
    <path
       inkscape:connector-curvature="0"
       id="path3050"
       d="m 560.23183,169.38897 28.42374,-30.82551 10.96342,5.88639 22.27044,-3.64126 11.92197,-6.00688 4.94488,-4.08077 4.17374,-0.59516 1.29233,4.239 13.96978,-4.55286 -18.67056,-33.422275 -20.08207,-1.21048 -33.6087,14.570195 -3.1157,15.34373 1.81358,11.96361 -27.66828,28.04053 z"
       style="fill:#1c326a;fill-opacity:1;stroke:#000000;stroke-width:0.96745044px;stroke-linecap:butt;stroke-linejoin:miter;stroke-opacity:1" />
    <path
       inkscape:connector-curvature="0"
       id="path3052"
       d="m 601.59773,126.21304 7.98038,-1.22775 4.911,-4.911 -6.75263,-3.68325 -5.52487,0 -4.91101,1.84163 z"
       style="fill:#000926;fill-opacity:1;stroke:#000000;stroke-width:0.96745044px;stroke-linecap:butt;stroke-linejoin:miter;stroke-opacity:1" />
    <path
       inkscape:connector-curvature="0"
       id="path3054"
       d="m 636.58862,117.61879 -7.3665,-0.61388 0,-6.75262 6.13875,-1.22775 -1.22775,4.911 z"
       style="fill:#06081f;fill-opacity:1;stroke:#000000;stroke-width:0.96745044px;stroke-linecap:butt;stroke-linejoin:miter;stroke-opacity:1" />
    <path
       inkscape:connector-curvature="0"
       id="path3128"
       d="m 626.15274,162.43168 11.66363,-11.04975 3.06938,1.84162 2.4555,-4.29712 6.75263,6.13875 -4.91101,-1.84163 -11.66363,3.06938 z"
       style="fill:#8b4e3c;fill-opacity:1;stroke:#000000;stroke-width:0.96745044px;stroke-linecap:butt;stroke-linejoin:miter;stroke-opacity:1" />
    <path
       inkscape:connector-curvature="0"
       id="path3130"
       d="m 637.2025,163.65943 3.06937,-5.52487 4.29713,-1.84163 3.06937,0 2.45551,3.06938 -5.52488,0.61387 z"
       style="fill:#834629;fill-opacity:1;stroke:#000000;stroke-width:0.96745044px;stroke-linecap:butt;stroke-linejoin:miter;stroke-opacity:1" />
    <path
       inkscape:connector-curvature="0"
       id="path3132"
       d="m 630.44987,139.36289 6.9061,0 10.74281,0.96928 0.76734,-6.78493 -3.06937,-2.42319 -13.04485,3.39246 z"
       style="fill:#582e28;fill-opacity:1;stroke:#000000;stroke-width:0.96745038px;stroke-linecap:butt;stroke-linejoin:miter;stroke-opacity:1" />
    <path
       inkscape:connector-curvature="0"
       id="path3134"
       d="m 629.83599,141.55992 1.84163,-6.13875 4.911,0 z"
       style="fill:#390f11;fill-opacity:1;stroke:#000000;stroke-width:0.96745044px;stroke-linecap:butt;stroke-linejoin:miter;stroke-opacity:1" />
    <path
       inkscape:connector-curvature="0"
       id="path3136"
       d="m 572.7456,157.52068 0,8.59425 3.06937,-1.84162 z"
       style="fill:#0c0201;fill-opacity:1;stroke:#000000;stroke-width:0.96745044px;stroke-linecap:butt;stroke-linejoin:miter;stroke-opacity:1" />
    <path
       inkscape:connector-curvature="0"
       id="path3140"
       d="m 608.35036,148.92643 -4.911,4.911 -0.61388,14.733 3.68325,4.29713 11.04976,3.06938 10.43588,0 9.822,3.68325 12.27751,-1.84163 1.84162,0 -3.68325,6.13876 -3.06938,20.87175 0,6.13876 -23.32726,2.4555 -22.71338,-5.52488 -3.68325,-18.41626 -7.3665,-12.2775 -4.911,-1.84163 0.61387,-9.20813 -3.06938,-11.04975 2.45551,-9.822 5.52487,-6.75263 16.57463,7.98038 z"
       style="fill:#9a6349;fill-opacity:1;stroke:#000000;stroke-width:0.96745044px;stroke-linecap:butt;stroke-linejoin:miter;stroke-opacity:1" />
    <path
       inkscape:connector-curvature="0"
       id="path3918"
       d="m 585.0231,163.65943 10.43588,12.27751 5.52488,7.98038 3.06937,-0.61388 1.84163,30.07989 -10.43588,-0.61388 -0.61388,-23.94113 -11.66362,-15.34688 -5.52488,-6.75263 9.822,-3.06938 z"
       style="fill:#81573e;fill-opacity:1;stroke:#000000;stroke-width:0.96745044px;stroke-linecap:butt;stroke-linejoin:miter;stroke-opacity:1" />
    <path
       inkscape:connector-curvature="0"
       id="path3920"
       d="m 612.64749,130.51017 10.43587,2.4555 4.91101,-0.61388 6.75262,-1.84162 4.29713,0.61387 0.61388,-4.29712 -6.75263,-8.59426 -3.68325,-3.68325 -3.06938,1.22775 -3.68325,-6.75262 -3.68325,10.43587 -1.84163,4.91101 4.911,1.84162 z"
       style="fill:#6896e5;fill-opacity:1;stroke:#000000;stroke-width:0.96745044px;stroke-linecap:butt;stroke-linejoin:miter;stroke-opacity:1" />
    <path
       inkscape:connector-curvature="0"
       id="path3922"
       d="m 594.84511,114.54941 9.822,-3.68325 -6.13875,-6.75263 14.733,-3.68325 8.59426,-3.683247 -9.82201,-1.227751 -17.1885,4.297128 -6.75263,9.20813 -1.22775,8.59425 2.4555,6.13875 z"
       style="fill:#678ad8;fill-opacity:1;stroke:#000000;stroke-width:0.96745044px;stroke-linecap:butt;stroke-linejoin:miter;stroke-opacity:1" />
    <path
       inkscape:connector-curvature="0"
       id="path3924"
       d="m 562.92359,162.43168 22.09951,-27.01051 -3.68325,-0.61387 -22.09951,26.39663 z"
       style="fill:#6b85da;fill-opacity:1;stroke:#000000;stroke-width:0.96745044px;stroke-linecap:butt;stroke-linejoin:miter;stroke-opacity:1" />
    <path
       inkscape:connector-curvature="0"
       id="path3926"
       d="m 608.96423,104.72741 27.01052,-7.980378 -17.18851,-0.613875 -22.71338,3.683251 -7.98038,17.188502 17.1885,-5.52487 z"
       style="fill:#6896e5;fill-opacity:1;stroke:#000000;stroke-width:0.96745044px;stroke-linecap:butt;stroke-linejoin:miter;stroke-opacity:1" />
    <path
       inkscape:connector-curvature="0"
       id="path3928"
       d="m 609.57811,120.68817 1.22775,3.06937 z"
       style="fill:none;stroke:#000000;stroke-width:0.96745044px;stroke-linecap:butt;stroke-linejoin:miter;stroke-opacity:1" />
    <path
       transform="matrix(0.12499996,0,0,0.06896549,534.99227,103.47425)"
       d="m 577.04271,240.70078 c 0,4.91599 -4.39746,8.90119 -9.82201,8.90119 -5.42454,0 -9.822,-3.9852 -9.822,-8.90119 0,-4.916 4.39746,-8.9012 9.822,-8.9012 5.42455,0 9.82201,3.9852 9.82201,8.9012 z"
       sodipodi:ry="8.9011908"
       sodipodi:rx="9.8220034"
       sodipodi:cy="240.70078"
       sodipodi:cx="567.2207"
       id="path3930"
       style="fill:#f9f9f9;fill-opacity:1"
       sodipodi:type="arc" />
    <path
       d="m 567.83459,232.7204 c 0,2.54275 -0.13742,4.60406 -0.30694,4.60406 -0.16952,0 -0.30694,-2.06131 -0.30694,-4.60406 0,-2.54276 0.13742,-4.60407 0.30694,-4.60407 0.16952,0 0.30694,2.06131 0.30694,4.60407 z"
       sodipodi:ry="4.6040645"
       sodipodi:rx="0.30693761"
       sodipodi:cy="232.7204"
       sodipodi:cx="567.52765"
       id="path3932"
       style="fill:#6896e5;fill-opacity:1"
       sodipodi:type="arc" />
    <path
       transform="matrix(0.12499996,0,0,0.20689653,564.29993,63.977009)"
       d="m 577.04271,240.70078 c 0,4.91599 -4.39746,8.90119 -9.82201,8.90119 -5.42454,0 -9.822,-3.9852 -9.822,-8.90119 0,-4.916 4.39746,-8.9012 9.822,-8.9012 5.42455,0 9.82201,3.9852 9.82201,8.9012 z"
       sodipodi:ry="8.9011908"
       sodipodi:rx="9.8220034"
       sodipodi:cy="240.70078"
       sodipodi:cx="567.2207"
       id="path3930-3"
       style="fill:#f9f9f9;fill-opacity:1"
       sodipodi:type="arc" />
  </g>
</svg>
